<?xml version="1.0" encoding="UTF-8" standalone="no"?><svg xmlns="http://www.w3.org/2000/svg" xmlns:xlink="http://www.w3.org/1999/xlink" clip-rule="evenodd" stroke-miterlimit="10" viewBox="0 0 1920 1080"><desc>SVG generated by Keynote</desc><defs><pattern id="patternP1" patternUnits="userSpaceOnUse" width="600" height="600" viewBox="0 0 600 600"><image xlink:href="../../0099E750-43F4-4A1E-80C1-2076B752852F/assets/80178DB44A976F13345376CE634CB034.png" width="600.00" height="600.00"></image></pattern><pattern id="patternP2" patternUnits="userSpaceOnUse" width="600" height="600" viewBox="0 0 600 600"><image xlink:href="../../0099E750-43F4-4A1E-80C1-2076B752852F/assets/80178DB44A976F13345376CE634CB034.png" width="600.00" height="600.00"></image></pattern><pattern id="patternP3" patternUnits="userSpaceOnUse" width="600" height="600" viewBox="0 0 600 600"><image xlink:href="../../0099E750-43F4-4A1E-80C1-2076B752852F/assets/80178DB44A976F13345376CE634CB034.png" width="600.00" height="600.00"></image></pattern><pattern id="patternP4" patternUnits="userSpaceOnUse" width="600" height="600" viewBox="0 0 600 600"><image xlink:href="../../0099E750-43F4-4A1E-80C1-2076B752852F/assets/80178DB44A976F13345376CE634CB034.png" width="600.00" height="600.00"></image></pattern><pattern id="patternP5" patternUnits="userSpaceOnUse" width="600" height="600" viewBox="0 0 600 600"><image xlink:href="../../0099E750-43F4-4A1E-80C1-2076B752852F/assets/80178DB44A976F13345376CE634CB034.png" width="600.00" height="600.00"></image></pattern></defs><g transform="matrix(1.00, 0.00, -0.00, -1.00, 0.0, 1080.0)"><path d="M 0.0 1080.0 L 1920.0 1080.0 L 1920.0 0.0 L 0.0 0.0 Z M 0.0 1080.0 " fill="#FEFFFF"></path><g><clipPath id="clip0x600000cabbe0"><path d="M 1949.4 501.0 L 1798.8 500.5 L 1798.3 687.2 L 1948.9 687.6 Z M 1949.4 501.0 "></path></clipPath><g clip-path="url(#clip0x600000cabbe0)"><image xlink:href="E9223858A3178E193D93B15422F8988D.png" width="149.00" height="185.00" transform="matrix(0.99, 0.00, -0.00, -1.00, 1799.8, 680.0)" opacity="0.75"></image></g></g><g><clipPath id="clip0x608000eaae60"><path d="M 1949.4 501.0 L 1798.8 500.5 L 1798.3 687.2 L 1948.9 687.6 Z M 1949.4 501.0 "></path></clipPath><g clip-path="url(#clip0x608000eaae60)"><g><clipPath id="clip0x608000eaa1a0"><path d="M 1907.8 595.2 L 1873.8 627.6 L 1839.9 595.0 L 1873.9 562.6 Z M 1907.8 595.2 "></path></clipPath><g clip-path="url(#clip0x608000eaa1a0)"><image xlink:href="80178DB44A976F13345376CE634CB034.png" width="600.00" height="600.00" transform="matrix(-0.50, -0.00, -0.00, 0.50, 1907.9, 562.7)"></image></g></g></g></g><g><clipPath id="clip0x6080012a5820"><path d="M 1916.1 497.5 L 1766.2 497.1 L 1765.6 688.5 L 1915.5 688.9 Z M 1916.1 497.5 "></path></clipPath><g clip-path="url(#clip0x6080012a5820)"><image xlink:href="C79E0CB8D98F7566CA33F4FB5323A4F6.png" width="148.00" height="189.00" transform="matrix(1.00, 0.00, -0.00, -1.00, 1767.2, 681.3)" opacity="0.75"></image></g></g><g><clipPath id="clip0x6080010b0b00"><path d="M 1916.1 497.5 L 1766.2 497.1 L 1765.6 688.5 L 1915.5 688.9 Z M 1916.1 497.5 "></path></clipPath><g clip-path="url(#clip0x6080010b0b00)"><g><clipPath id="clip0x6080012ae820"><path d="M 1874.5 560.2 L 1807.4 560.0 L 1807.2 627.8 L 1874.3 628.0 Z M 1874.5 560.2 "></path></clipPath><g clip-path="url(#clip0x6080012ae820)"><image xlink:href="../../0099E750-43F4-4A1E-80C1-2076B752852F/assets/80178DB44A976F13345376CE634CB034.png" width="600.00" height="600.00" transform="matrix(-0.50, -0.00, -0.00, 0.50, 1874.5, 560.2)"></image></g></g></g></g><g><clipPath id="clip0x600000aac840"><path d="M 1883.4 565.6 L 1802.0 565.4 L 1802.0 569.4 L 1883.3 569.6 Z M 1883.4 565.6 "></path></clipPath><g clip-path="url(#clip0x600000aac840)"><path d="M 0.0 0.0 L 79.4 0.0 " fill="none" stroke="#85878C" stroke-width="2.00" transform="matrix(-1.00, -0.00, -0.00, 1.00, 1882.4, 567.6)"></path></g></g><g><clipPath id="clip0x6000008be000"><path d="M 1874.8 617.1 L 1803.7 616.9 L 1803.7 620.9 L 1874.8 621.1 Z M 1874.8 617.1 "></path></clipPath><g clip-path="url(#clip0x6000008be000)"><path d="M 0.0 0.0 L 69.1 0.0 " fill="none" stroke="#85878C" stroke-width="2.00" transform="matrix(-1.00, -0.00, -0.00, 1.00, 1873.8, 619.1)"></path></g></g><g><clipPath id="clip0x600000ca61e0"><path d="M 1872.3 557.6 L 1872.3 630.4 L 1876.3 630.4 L 1876.3 557.6 Z M 1872.3 557.6 "></path></clipPath><g clip-path="url(#clip0x600000ca61e0)"><path d="M 0.4 -0.3 L 70.4 -0.3 " fill="none" stroke="#85878C" stroke-width="2.00" transform="matrix(0.00, 1.00, 1.00, 0.00, 1874.3, 558.6)"></path></g></g><g><clipPath id="clip0x600000cab7c0"><path d="M -23.2 480.7 L 126.9 480.7 L 126.9 671.7 L -23.2 671.7 Z M -23.2 480.7 "></path></clipPath><g clip-path="url(#clip0x600000cab7c0)"><image xlink:href="A297B7057C0E9119CB8147E791AA13CA.png" width="149.00" height="189.00" transform="matrix(0.99, 0.00, -0.00, -1.00, -22.2, 664.5)" opacity="0.75"></image></g></g><g><clipPath id="clip0x6080012afcc0"><path d="M 17.8 577.2 L 51.9 543.2 L 85.9 577.2 L 51.9 611.3 Z M 17.8 577.2 "></path></clipPath><g clip-path="url(#clip0x6080012afcc0)"><g><clipPath id="clip0x6080010bdac0"><path d="M -23.2 480.7 L 126.9 480.7 L 126.9 671.7 L -23.2 671.7 Z M -23.2 480.7 "></path></clipPath><g clip-path="url(#clip0x6080010bdac0)"><image xlink:href="../../0099E750-43F4-4A1E-80C1-2076B752852F/assets/80178DB44A976F13345376CE634CB034.png" width="600.00" height="600.00" transform="matrix(0.50, 0.00, -0.00, -0.50, 17.8, 611.3)"></image></g></g></g></g><g><clipPath id="clip0x6080012b11c0"><path d="M 10.3 480.1 L 160.4 480.1 L 160.4 671.0 L 10.3 671.0 Z M 10.3 480.1 "></path></clipPath><g clip-path="url(#clip0x6080012b11c0)"><image xlink:href="5E0C0A7512781C1B783031F11C332580.png" width="149.00" height="189.00" transform="matrix(0.99, 0.00, -0.00, -1.00, 11.3, 663.8)" opacity="0.75"></image></g></g><g><clipPath id="clip0x6080012b3f80"><path d="M 51.0 611.0 L 119.0 611.0 L 119.0 542.0 L 51.0 542.0 Z M 51.3 610.6 "></path></clipPath><g clip-path="url(#clip0x6080012b3f80)"><g><clipPath id="clip0x6080010ab700"><path d="M 10.3 480.1 L 160.4 480.1 L 160.4 671.0 L 10.3 671.0 Z M 10.3 480.1 "></path></clipPath><g clip-path="url(#clip0x6080010ab700)"><image xlink:href="../../0099E750-43F4-4A1E-80C1-2076B752852F/assets/80178DB44A976F13345376CE634CB034.png" width="600.00" height="600.00" transform="matrix(0.50, 0.00, -0.00, -0.50, 51.0, 611.0)"></image></g></g></g></g><g><clipPath id="clip0x600000ca32a0"><path d="M 1418.4 498.9 L 1877.8 498.9 L 1877.8 734.3 L 1418.4 734.3 Z M 1418.4 498.9 "></path></clipPath><g clip-path="url(#clip0x600000ca32a0)"><image xlink:href="984643CA74DF9DCC1A907766DAF7B1B5.png" width="458.00" height="234.00" transform="matrix(1.00, 0.00, -0.00, -1.00, 1419.4, 727.1)" opacity="0.75"></image></g></g><g><clipPath id="clip0x6080010b4a60"><path d="M 1453.0 669.0 L 1830.0 669.0 L 1830.0 573.0 L 1453.0 573.0 Z M 1452.9 669.2 "></path></clipPath><g clip-path="url(#clip0x6080010b4a60)"><g><clipPath id="clip0x6080010b92c0"><path d="M 1418.4 498.9 L 1877.8 498.9 L 1877.8 734.3 L 1418.4 734.3 Z M 1418.4 498.9 "></path></clipPath><g clip-path="url(#clip0x6080010b92c0)"><path d="M 1453.0 573.0 L 1830.0 573.0 L 1830.0 669.0 L 1453.0 669.0 Z M 1453.0 573.0 " fill="url(#patternP1)"></path></g></g></g></g><g><clipPath id="clip0x6080012a7080"><path d="M 1454.3 655.1 L 1833.7 655.1 L 1833.7 659.1 L 1454.3 659.1 Z M 1454.3 655.1 "></path></clipPath><g clip-path="url(#clip0x6080012a7080)"><path d="M -0.3 0.1 L 377.7 0.1 " fill="none" stroke="#85878C" stroke-width="2.00" transform="matrix(1.00, 0.00, 0.00, -1.00, 1455.3, 657.1)"></path></g></g><g><clipPath id="clip0x6080010aeac0"><path d="M 1454.3 583.4 L 1833.7 583.4 L 1833.7 587.4 L 1454.3 587.4 Z M 1454.3 583.4 "></path></clipPath><g clip-path="url(#clip0x6080010aeac0)"><path d="M -0.3 0.4 L 377.7 0.4 " fill="none" stroke="#85878C" stroke-width="2.00" transform="matrix(1.00, 0.00, 0.00, -1.00, 1455.3, 585.4)"></path></g></g><g><clipPath id="clip0x6080010bd700"><path d="M 1559.9 566.8 L 1716.3 566.8 L 1716.3 667.4 L 1559.9 667.4 Z M 1559.9 566.8 "></path></clipPath><g clip-path="url(#clip0x6080010bd700)"><text xml:space="preserve" font-family="BebasNeue,Bebas Neue" font-size="56.0" fill="#85888D" transform="matrix(1.00, 0.00, -0.00, -1.00, 1577.2, 600.4)">d</text><text xml:space="preserve" font-family="BebasNeue,Bebas Neue" font-size="56.0" fill="#85888D" transform="matrix(1.00, 0.00, -0.00, -1.00, 1600.1, 600.4)">e</text><text xml:space="preserve" font-family="BebasNeue,Bebas Neue" font-size="56.0" fill="#85888D" transform="matrix(1.00, 0.00, -0.00, -1.00, 1620.7, 600.4)">s</text><text xml:space="preserve" font-family="BebasNeue,Bebas Neue" font-size="56.0" fill="#85888D" transform="matrix(1.00, 0.00, -0.00, -1.00, 1641.6, 600.4)">i</text><text xml:space="preserve" font-family="BebasNeue,Bebas Neue" font-size="56.0" fill="#85888D" transform="matrix(1.00, 0.00, -0.00, -1.00, 1652.3, 600.4)">g</text><text xml:space="preserve" font-family="BebasNeue,Bebas Neue" font-size="56.0" fill="#85888D" transform="matrix(1.00, 0.00, -0.00, -1.00, 1674.1, 600.4)">n</text></g></g><g><clipPath id="clip0x6080010a46e0"><path d="M 41.6 496.7 L 501.0 496.7 L 501.0 732.2 L 41.6 732.2 Z M 41.6 496.7 "></path></clipPath><g clip-path="url(#clip0x6080010a46e0)"><image xlink:href="CE3F46FAF4C65F07946D61A32154FABD.png" width="458.00" height="234.00" transform="matrix(1.00, 0.00, -0.00, -1.00, 42.6, 725.0)" opacity="0.75"></image></g></g><g><clipPath id="clip0x6080012aab60"><path d="M 90.0 668.0 L 467.0 668.0 L 467.0 572.0 L 90.0 572.0 Z M 89.9 667.7 "></path></clipPath><g clip-path="url(#clip0x6080012aab60)"><g><clipPath id="clip0x608000eb99e0"><path d="M 41.6 496.7 L 501.0 496.7 L 501.0 732.2 L 41.6 732.2 Z M 41.6 496.7 "></path></clipPath><g clip-path="url(#clip0x608000eb99e0)"><path d="M 90.0 572.0 L 467.0 572.0 L 467.0 668.0 L 90.0 668.0 Z M 90.0 572.0 " fill="url(#patternP2)"></path></g></g></g></g><g><clipPath id="clip0x6080010b9080"><path d="M 91.2 653.6 L 470.6 653.6 L 470.6 657.6 L 91.2 657.6 Z M 91.2 653.6 "></path></clipPath><g clip-path="url(#clip0x6080010b9080)"><path d="M -0.2 -0.4 L 377.8 -0.4 " fill="none" stroke="#85878C" stroke-width="2.00" transform="matrix(1.00, 0.00, 0.00, -1.00, 92.2, 655.6)"></path></g></g><g><clipPath id="clip0x6080012b7d00"><path d="M 184.0 565.2 L 366.1 565.2 L 366.1 665.8 L 184.0 665.8 Z M 184.0 565.2 "></path></clipPath><g clip-path="url(#clip0x6080012b7d00)"><text xml:space="preserve" font-family="BebasNeue,Bebas Neue" font-size="56.0" fill="#85888D" transform="matrix(1.00, 0.00, -0.00, -1.00, 201.3, 598.8)">s</text><text xml:space="preserve" font-family="BebasNeue,Bebas Neue" font-size="56.0" fill="#85888D" transform="matrix(1.00, 0.00, -0.00, -1.00, 222.3, 598.8)">o</text><text xml:space="preserve" font-family="BebasNeue,Bebas Neue" font-size="56.0" fill="#85888D" transform="matrix(1.00, 0.00, -0.00, -1.00, 244.5, 598.8)">c</text><text xml:space="preserve" font-family="BebasNeue,Bebas Neue" font-size="56.0" fill="#85888D" transform="matrix(1.00, 0.00, -0.00, -1.00, 266.1, 598.8)">i</text><text xml:space="preserve" font-family="BebasNeue,Bebas Neue" font-size="56.0" fill="#85888D" transform="matrix(1.00, 0.00, -0.00, -1.00, 276.7, 598.8)">a</text><text xml:space="preserve" font-family="BebasNeue,Bebas Neue" font-size="56.0" fill="#85888D" transform="matrix(1.00, 0.00, -0.00, -1.00, 299.5, 598.8)">l</text><text xml:space="preserve" font-family="BebasNeue,Bebas Neue" font-size="56.0" fill="#85888D" transform="matrix(1.00, 0.00, -0.00, -1.00, 318.5, 598.8)"> </text><text xml:space="preserve" font-family="BebasNeue,Bebas Neue" font-size="56.0" fill="#85888D" transform="matrix(1.00, 0.00, -0.00, -1.00, 327.2, 598.8)">E</text></g></g><g><clipPath id="clip0x6080010b70a0"><path d="M 370.6 523.9 L 830.1 523.9 L 830.1 759.4 L 370.6 759.4 Z M 370.6 523.9 "></path></clipPath><g clip-path="url(#clip0x6080010b70a0)"><image xlink:href="61CE0F956C52549307DBE4F7774E5930.png" width="458.00" height="234.00" transform="matrix(1.00, 0.00, -0.00, -1.00, 371.6, 752.2)" opacity="0.75"></image></g></g><g><clipPath id="clip0x6000008a97e0"><path d="M 419.0 695.0 L 796.0 695.0 L 796.0 599.0 L 419.0 599.0 Z M 418.9 694.9 "></path></clipPath><g clip-path="url(#clip0x6000008a97e0)"><g><clipPath id="clip0x6000008b74c0"><path d="M 370.6 523.9 L 830.1 523.9 L 830.1 759.4 L 370.6 759.4 Z M 370.6 523.9 "></path></clipPath><g clip-path="url(#clip0x6000008b74c0)"><path d="M 419.0 599.0 L 796.0 599.0 L 796.0 695.0 L 419.0 695.0 Z M 419.0 599.0 " fill="url(#patternP3)"></path></g></g></g></g><g><clipPath id="clip0x600000ab8f00"><path d="M 420.3 680.8 L 799.7 680.8 L 799.7 684.8 L 420.3 684.8 Z M 420.3 680.8 "></path></clipPath><g clip-path="url(#clip0x600000ab8f00)"><path d="M -0.3 -0.2 L 377.7 -0.2 " fill="none" stroke="#85878C" stroke-width="2.00" transform="matrix(1.00, 0.00, 0.00, -1.00, 421.3, 682.8)"></path></g></g><g><clipPath id="clip0x600000cac780"><path d="M 420.3 609.0 L 799.7 609.0 L 799.7 613.0 L 420.3 613.0 Z M 420.3 609.0 "></path></clipPath><g clip-path="url(#clip0x600000cac780)"><path d="M -0.3 0.0 L 377.7 0.0 " fill="none" stroke="#85878C" stroke-width="2.00" transform="matrix(1.00, 0.00, 0.00, -1.00, 421.3, 611.0)"></path></g></g><g><clipPath id="clip0x600000cb4340"><path d="M 543.3 592.4 L 665.0 592.4 L 665.0 693.0 L 543.3 693.0 Z M 543.3 592.4 "></path></clipPath><g clip-path="url(#clip0x600000cb4340)"><text xml:space="preserve" font-family="BebasNeue,Bebas Neue" font-size="56.0" fill="#85888D" transform="matrix(1.00, 0.00, -0.00, -1.00, 560.6, 626.0)">t</text><text xml:space="preserve" font-family="BebasNeue,Bebas Neue" font-size="56.0" fill="#85888D" transform="matrix(1.00, 0.00, -0.00, -1.00, 580.5, 626.0)">e</text><text xml:space="preserve" font-family="BebasNeue,Bebas Neue" font-size="56.0" fill="#85888D" transform="matrix(1.00, 0.00, -0.00, -1.00, 601.1, 626.0)">c</text><text xml:space="preserve" font-family="BebasNeue,Bebas Neue" font-size="56.0" fill="#85888D" transform="matrix(1.00, 0.00, -0.00, -1.00, 622.7, 626.0)">h</text></g></g><g><clipPath id="clip0x600000abf7a0"><path d="M 1083.3 524.1 L 1542.8 524.1 L 1542.8 759.6 L 1083.3 759.6 Z M 1083.3 524.1 "></path></clipPath><g clip-path="url(#clip0x600000abf7a0)"><image xlink:href="C3E63451D3CF67E658CB59984DBCB1E0.png" width="458.00" height="234.00" transform="matrix(1.00, 0.00, -0.00, -1.00, 1084.3, 752.4)" opacity="0.75"></image></g></g><g><clipPath id="clip0x600000cad860"><path d="M 1118.0 694.0 L 1495.0 694.0 L 1495.0 599.0 L 1118.0 599.0 Z M 1117.9 694.5 "></path></clipPath><g clip-path="url(#clip0x600000cad860)"><g><clipPath id="clip0x600000cadec0"><path d="M 1083.3 524.1 L 1542.8 524.1 L 1542.8 759.6 L 1083.3 759.6 Z M 1083.3 524.1 "></path></clipPath><g clip-path="url(#clip0x600000cadec0)"><path d="M 1118.0 599.0 L 1495.0 599.0 L 1495.0 694.0 L 1118.0 694.0 Z M 1118.0 599.0 " fill="url(#patternP4)"></path></g></g></g></g><g><clipPath id="clip0x600000cb1160"><path d="M 1119.2 680.4 L 1498.6 680.4 L 1498.6 684.4 L 1119.2 684.4 Z M 1119.2 680.4 "></path></clipPath><g clip-path="url(#clip0x600000cb1160)"><path d="M -0.2 0.4 L 377.8 0.4 " fill="none" stroke="#85878C" stroke-width="2.00" transform="matrix(1.00, 0.00, 0.00, -1.00, 1120.2, 682.4)"></path></g></g><g><clipPath id="clip0x600000cae520"><path d="M 1119.2 608.7 L 1498.6 608.7 L 1498.6 612.7 L 1119.2 612.7 Z M 1119.2 608.7 "></path></clipPath><g clip-path="url(#clip0x600000cae520)"><path d="M -0.2 -0.3 L 377.8 -0.3 " fill="none" stroke="#85878C" stroke-width="2.00" transform="matrix(1.00, 0.00, 0.00, -1.00, 1120.2, 610.7)"></path></g></g><g><clipPath id="clip0x600000ca7a40"><path d="M 1185.7 592.0 L 1420.4 592.0 L 1420.4 692.6 L 1185.7 692.6 Z M 1185.7 592.0 "></path></clipPath><g clip-path="url(#clip0x600000ca7a40)"><text xml:space="preserve" font-family="BebasNeue,Bebas Neue" font-size="56.0" fill="#85888D" transform="matrix(1.00, 0.00, -0.00, -1.00, 1203.0, 625.6)">i</text><text xml:space="preserve" font-family="BebasNeue,Bebas Neue" font-size="56.0" fill="#85888D" transform="matrix(1.00, 0.00, -0.00, -1.00, 1213.7, 625.6)">n</text><text xml:space="preserve" font-family="BebasNeue,Bebas Neue" font-size="56.0" fill="#85888D" transform="matrix(1.00, 0.00, -0.00, -1.00, 1237.6, 625.6)">n</text><text xml:space="preserve" font-family="BebasNeue,Bebas Neue" font-size="56.0" fill="#85888D" transform="matrix(1.00, 0.00, -0.00, -1.00, 1261.5, 625.6)">o</text><text xml:space="preserve" font-family="BebasNeue,Bebas Neue" font-size="56.0" fill="#85888D" transform="matrix(1.00, 0.00, -0.00, -1.00, 1283.6, 625.6)">v</text><text xml:space="preserve" font-family="BebasNeue,Bebas Neue" font-size="56.0" fill="#85888D" transform="matrix(1.00, 0.00, -0.00, -1.00, 1304.7, 625.6)">a</text><text xml:space="preserve" font-family="BebasNeue,Bebas Neue" font-size="56.0" fill="#85888D" transform="matrix(1.00, 0.00, -0.00, -1.00, 1325.4, 625.6)">t</text><text xml:space="preserve" font-family="BebasNeue,Bebas Neue" font-size="56.0" fill="#85888D" transform="matrix(1.00, 0.00, -0.00, -1.00, 1345.3, 625.6)">i</text><text xml:space="preserve" font-family="BebasNeue,Bebas Neue" font-size="56.0" fill="#85888D" transform="matrix(1.00, 0.00, -0.00, -1.00, 1356.0, 625.6)">o</text><text xml:space="preserve" font-family="BebasNeue,Bebas Neue" font-size="56.0" fill="#85888D" transform="matrix(1.00, 0.00, -0.00, -1.00, 1378.2, 625.6)">n</text></g></g><g><clipPath id="clip0x6000008b2720"><path d="M 42.3 601.1 L 84.4 601.1 L 84.4 605.1 L 42.3 605.1 Z M 42.3 601.1 "></path></clipPath><g clip-path="url(#clip0x6000008b2720)"><path d="M -0.3 0.1 L 39.7 0.1 " fill="none" stroke="#85878C" stroke-width="2.00" transform="matrix(1.00, 0.00, 0.00, -1.00, 43.3, 603.1)"></path></g></g><g><clipPath id="clip0x608000aa1e00"><path d="M 41.3 549.5 L 122.9 549.5 L 122.9 553.5 L 41.3 553.5 Z M 41.3 549.5 "></path></clipPath><g clip-path="url(#clip0x608000aa1e00)"><path d="M -0.3 0.5 L 79.7 0.5 " fill="none" stroke="#85878C" stroke-width="2.00" transform="matrix(1.00, 0.00, 0.00, -1.00, 42.3, 551.5)"></path></g></g><g><clipPath id="clip0x6080012a4980"><path d="M 50.3 540.5 L 50.3 613.3 L 54.3 613.3 L 54.3 540.5 Z M 50.3 540.5 "></path></clipPath><g clip-path="url(#clip0x6080012a4980)"><path d="M -0.5 -0.3 L 70.5 -0.3 " fill="none" stroke="#85878C" stroke-width="2.00" transform="matrix(0.00, 1.00, 1.00, 0.00, 52.3, 541.5)"></path></g></g><g><clipPath id="clip0x6080010a6840"><path d="M 91.2 581.9 L 470.6 581.9 L 470.6 585.9 L 91.2 585.9 Z M 91.2 581.9 "></path></clipPath><g clip-path="url(#clip0x6080010a6840)"><path d="M -0.2 -0.1 L 377.8 -0.1 " fill="none" stroke="#85878C" stroke-width="2.00" transform="matrix(1.00, 0.00, 0.00, -1.00, 92.2, 583.9)"></path></g></g><image xlink:href="0F080C45B8B52D0712F7EA28A8AE833C.png" width="416.00" height="404.00" transform="matrix(-0.31, 0.95, 0.95, 0.31, 808.6, 353.5)" opacity="0.79"></image><g><clipPath id="clip0x600000abe900"><path d="M 750.5 554.9 L 828.9 790.6 L 1080.4 793.3 L 1157.5 559.3 L 953.6 411.9 Z M 750.5 554.9 "></path></clipPath><g clip-path="url(#clip0x600000abe900)"><path d="M 1270.9 449.3 L 1117.7 914.3 L 637.1 756.0 L 790.3 291.0 Z M 1270.9 449.3 " fill="url(#patternP5)"></path></g></g><path d="M 1104.9 736.1 C 1105.1 735.2 1105.4 734.2 1105.9 732.6 C 1105.6 733.2 1105.4 733.7 1105.3 733.5 C 1104.9 734.9 1104.4 736.7 1103.5 739.3 C 1103.6 739.2 1104.0 737.9 1104.4 737.0 C 1104.7 736.0 1104.8 736.3 1104.9 736.1 C 1104.9 736.1 1104.9 736.1 1104.9 736.1 Z M 1045.1 472.4 C 1047.0 473.9 1045.1 472.0 1044.3 471.5 C 1044.2 471.5 1044.1 471.5 1043.3 470.9 C 1043.3 470.5 1045.0 471.7 1046.4 472.5 C 1051.6 476.5 1047.4 474.1 1045.1 472.4 C 1045.1 472.4 1045.1 472.4 1045.1 472.4 Z M 791.5 520.8 C 787.3 523.6 791.9 520.9 792.6 520.5 C 790.7 522.0 792.5 521.3 790.0 523.1 C 789.5 523.3 788.5 523.8 788.0 524.0 C 789.1 523.2 790.7 522.1 790.8 521.9 C 789.3 522.9 787.3 524.4 787.0 524.5 C 790.2 522.1 787.4 523.8 786.7 524.0 C 789.6 522.0 790.4 521.1 791.5 520.8 C 791.5 520.8 791.5 520.8 791.5 520.8 Z M 811.1 748.8 C 810.6 747.4 810.3 746.2 810.5 746.4 C 811.0 747.8 811.3 748.9 811.5 749.8 C 811.7 749.9 811.7 749.3 812.1 750.5 C 812.4 752.3 811.8 751.9 811.5 751.3 C 811.6 751.0 809.9 746.1 811.1 748.8 C 811.1 748.8 811.1 748.8 811.1 748.8 Z M 909.6 794.6 C 914.0 794.8 910.0 794.1 914.3 794.3 C 914.2 794.6 914.8 795.0 911.8 795.0 C 911.6 794.8 909.9 794.8 909.6 794.6 C 909.6 794.6 909.6 794.6 909.6 794.6 Z M 898.6 448.4 C 898.6 448.2 896.1 450.1 896.7 449.3 C 897.9 448.4 899.1 447.6 900.4 446.7 C 900.7 446.7 900.3 447.2 898.6 448.4 C 898.6 448.4 898.6 448.4 898.6 448.4 Z M 764.8 543.4 C 760.3 546.1 756.0 549.8 757.2 548.6 C 755.4 549.4 759.7 545.6 759.7 546.1 C 760.4 546.1 768.2 541.0 764.8 543.4 C 764.8 543.4 764.8 543.4 764.8 543.4 Z M 1021.0 462.1 C 1016.7 458.6 1017.2 460.2 1014.5 457.7 C 1015.5 458.4 1016.0 458.6 1016.4 458.8 C 1015.7 458.2 1014.6 457.5 1014.6 457.4 C 1016.7 458.8 1019.3 460.5 1021.0 462.1 C 1021.0 462.1 1021.0 462.1 1021.0 462.1 Z M 1069.7 797.8 C 1068.8 797.8 1068.4 797.8 1068.6 798.0 C 1064.9 797.9 1065.2 798.1 1062.7 797.9 C 1062.4 797.5 1065.5 797.6 1068.4 797.7 C 1068.5 797.7 1069.4 797.6 1069.7 797.8 C 1069.7 797.8 1069.7 797.8 1069.7 797.8 Z M 966.5 795.4 C 966.6 795.7 968.8 795.8 965.4 795.9 C 961.5 795.4 964.9 795.2 968.8 795.0 C 968.8 794.9 968.8 794.7 968.8 794.6 C 967.2 794.6 966.2 794.5 965.3 794.4 C 964.7 794.9 962.0 794.0 956.1 794.2 C 958.9 794.0 955.8 793.6 959.5 793.8 C 958.5 793.5 961.1 793.6 960.6 793.3 C 959.1 793.4 955.2 793.4 956.1 793.8 C 954.0 793.8 952.5 793.7 951.4 793.6 C 950.0 793.3 955.2 793.6 953.7 793.2 C 952.6 793.2 952.4 793.1 951.5 793.1 C 951.2 793.2 951.7 793.4 950.3 793.4 C 946.6 793.2 951.0 793.0 945.7 792.9 C 945.4 793.1 947.0 793.2 946.8 793.4 C 944.5 793.5 944.6 793.3 942.2 793.4 C 941.8 793.2 943.9 793.2 942.3 793.1 C 940.8 793.6 937.5 792.7 934.2 793.1 C 936.3 793.8 933.6 793.0 930.6 793.6 C 930.0 793.4 932.2 793.0 929.6 793.0 C 930.4 793.8 920.1 793.5 928.3 794.3 C 923.9 794.2 922.3 794.9 925.8 795.0 C 918.1 794.7 920.5 795.2 917.5 795.2 C 914.6 795.2 919.2 795.1 917.6 794.8 C 920.8 794.9 920.1 794.6 922.3 794.9 C 922.3 794.7 922.9 794.6 923.6 794.5 C 920.4 794.7 916.7 794.2 919.1 793.8 C 920.7 793.9 919.1 794.3 921.3 794.3 C 920.6 793.8 923.5 794.4 923.7 794.1 C 922.3 793.6 926.8 793.3 922.6 793.2 C 922.6 793.4 922.5 793.6 922.5 793.7 C 921.4 793.7 920.2 793.7 919.1 793.7 C 918.2 793.4 919.0 793.2 918.0 793.0 C 916.1 793.0 915.1 793.1 914.5 793.2 C 916.8 793.3 919.6 793.6 915.6 793.7 C 917.2 793.0 910.1 793.5 913.4 793.1 C 909.2 792.8 906.9 793.4 906.6 792.9 C 904.3 792.9 905.7 793.3 903.0 793.2 C 898.8 792.9 899.4 793.3 893.8 793.0 C 892.9 793.5 893.3 792.9 891.5 792.9 C 891.4 793.1 891.4 793.2 891.3 793.4 C 889.4 793.1 884.8 792.9 879.8 793.2 C 878.7 793.1 879.7 792.8 876.5 792.8 C 872.9 793.2 869.1 792.7 864.8 793.1 C 864.6 792.9 861.8 792.8 860.3 793.0 C 859.7 792.8 861.9 792.4 859.3 792.4 C 857.5 792.7 860.4 792.8 856.8 792.9 C 857.3 792.6 853.2 793.2 853.3 792.8 C 854.5 792.7 855.8 792.6 857.0 792.5 C 855.4 792.5 856.0 792.3 854.8 792.3 C 854.7 792.7 852.2 792.3 851.3 792.2 C 851.3 792.4 850.9 792.6 849.9 792.6 C 847.9 792.6 846.3 792.6 845.2 792.7 C 842.8 792.5 846.9 792.4 844.3 792.4 C 842.5 793.2 840.6 792.2 834.8 792.7 C 833.8 792.4 831.6 792.3 828.2 792.2 C 827.6 792.4 831.4 792.3 831.4 792.5 C 826.4 792.4 832.2 792.8 828.9 792.7 C 828.4 792.7 827.9 792.7 827.4 792.7 C 825.5 786.5 824.0 782.2 822.0 775.3 C 821.8 775.6 819.8 770.2 819.9 770.2 C 820.5 771.6 819.2 766.7 818.5 764.4 C 817.9 764.2 816.3 761.1 816.0 761.1 C 815.9 760.0 816.0 760.2 816.2 759.4 C 815.0 755.2 813.9 753.5 813.5 750.4 C 813.4 750.9 812.7 749.1 812.1 747.5 C 812.4 747.7 812.9 748.5 813.3 749.2 C 812.6 747.1 812.6 746.6 811.9 744.8 C 810.6 743.6 810.4 739.5 809.2 738.7 C 808.2 735.7 808.7 735.9 807.7 733.0 C 807.6 733.3 807.4 733.1 807.0 732.3 C 807.7 734.2 808.4 735.3 808.5 736.7 C 807.0 732.5 810.4 745.5 807.8 738.9 C 807.8 738.5 808.2 738.9 807.8 737.4 C 806.3 733.6 806.9 736.2 807.4 737.8 C 806.4 735.3 805.6 732.4 806.0 734.8 C 803.9 728.8 805.4 732.5 804.8 730.2 C 800.9 719.5 796.3 705.9 791.7 690.8 C 791.1 690.6 788.9 682.4 788.2 679.7 C 786.5 675.7 785.0 671.4 785.0 669.9 C 784.4 669.4 783.5 664.6 783.0 664.4 C 783.6 666.2 783.9 667.5 783.2 665.7 C 781.4 659.5 778.4 650.4 777.0 647.0 C 776.7 644.6 775.3 640.7 774.2 638.2 C 774.2 637.7 775.0 639.7 774.5 638.0 C 774.1 637.6 772.0 632.1 771.8 630.5 C 772.3 632.3 773.3 634.0 772.5 631.4 C 772.3 631.5 771.4 628.5 771.4 629.4 C 770.3 625.7 769.4 623.6 768.6 620.6 C 769.4 623.0 770.0 624.4 770.4 624.7 C 769.5 622.7 768.9 621.1 768.6 619.3 C 768.3 620.0 767.4 616.4 766.0 613.0 C 765.9 612.0 765.8 611.1 764.9 608.4 C 764.1 607.1 766.0 612.9 764.8 609.7 C 765.0 609.7 764.2 606.6 764.1 607.5 C 763.0 603.7 762.1 601.8 761.4 598.7 C 762.6 602.5 762.0 599.5 761.8 598.5 C 761.5 597.6 761.1 596.3 761.0 596.4 C 760.9 596.4 761.5 598.3 761.5 598.6 C 760.7 595.9 760.0 595.4 759.9 594.3 C 760.3 595.5 760.6 595.6 760.1 594.2 C 759.5 594.1 757.3 586.1 758.4 588.7 C 758.3 588.8 759.3 591.7 759.5 592.0 C 759.4 591.1 757.7 586.7 758.4 587.5 C 759.3 590.0 759.0 589.9 760.1 593.0 C 760.4 593.2 761.1 595.0 761.6 596.1 C 759.9 591.2 759.2 590.3 759.4 589.5 C 758.7 587.4 758.7 588.8 757.6 585.3 C 756.1 580.2 757.8 584.2 757.4 582.9 C 755.8 578.5 755.8 580.1 756.1 582.1 C 755.0 578.6 754.4 577.6 753.1 573.4 C 753.4 573.6 753.7 574.1 754.3 575.5 C 754.2 575.7 755.2 579.3 755.3 578.9 C 755.6 578.4 754.9 575.4 753.4 570.9 C 753.4 572.2 753.7 572.2 752.1 567.7 C 751.9 568.6 751.5 565.5 751.2 565.5 C 751.1 565.8 751.7 567.4 752.2 568.9 C 752.0 568.8 751.6 568.4 751.1 566.9 C 750.9 565.9 750.5 565.2 749.7 562.5 C 749.9 562.2 750.6 564.1 750.9 564.4 C 750.4 563.0 750.2 562.7 749.6 561.2 C 749.5 559.8 750.0 559.8 750.4 559.8 C 751.1 561.4 752.0 564.1 751.5 561.9 C 753.6 568.2 750.9 561.7 751.7 564.2 C 753.0 566.7 751.9 565.4 753.4 569.6 C 753.8 570.9 754.0 571.3 754.3 571.8 C 754.3 571.4 753.8 568.9 754.7 571.6 C 754.7 572.3 755.1 573.9 755.8 576.1 C 755.9 576.1 754.6 571.4 756.1 576.0 C 756.8 578.2 755.7 576.4 756.8 579.5 C 756.9 579.4 757.2 580.3 757.3 580.4 C 755.8 576.0 757.8 581.2 757.0 578.1 C 758.4 581.9 756.9 578.9 757.8 581.5 C 758.0 581.5 759.0 585.8 759.4 585.7 C 758.7 584.2 757.7 581.0 758.2 581.3 C 759.1 584.2 763.7 597.3 761.5 592.3 C 762.3 594.1 765.9 603.6 765.5 602.9 C 764.6 600.1 764.4 600.3 764.0 600.0 C 766.2 605.2 766.8 608.1 769.2 613.8 C 767.1 607.3 769.2 611.9 768.2 608.0 C 767.6 606.3 766.9 604.0 766.6 603.6 C 766.6 604.5 767.6 607.1 768.1 608.0 C 767.8 608.2 767.6 608.3 767.3 608.5 C 765.3 601.2 763.7 597.6 762.7 594.2 C 763.7 597.1 761.3 588.6 762.5 591.9 C 762.8 593.3 763.9 596.7 764.7 599.6 C 764.8 599.6 764.9 599.5 765.0 599.5 C 765.5 600.7 766.0 602.6 766.2 602.6 C 764.8 598.7 764.4 596.5 763.3 593.9 C 763.4 593.9 763.4 593.9 763.5 593.8 C 763.3 593.2 763.1 592.6 763.3 592.7 C 763.7 594.0 764.3 595.8 764.4 596.0 C 763.6 593.1 763.7 592.4 762.7 589.2 C 763.3 589.8 762.3 585.4 764.0 590.0 C 763.9 590.9 764.6 593.4 764.4 593.4 C 764.7 594.8 765.7 597.5 766.3 598.8 C 766.1 597.4 765.3 594.6 765.5 594.2 C 766.3 596.4 767.0 598.2 767.2 599.7 C 765.5 595.1 767.8 602.3 768.0 604.3 C 768.0 603.7 767.7 602.6 767.7 601.9 C 768.9 605.4 769.2 607.2 769.7 607.2 C 771.3 611.5 770.6 610.7 771.6 613.7 C 771.4 611.5 772.5 615.6 772.2 613.4 C 774.0 618.4 772.3 615.1 772.9 616.9 C 773.5 618.4 773.7 618.6 774.2 620.0 C 774.7 622.5 776.3 627.1 776.1 627.9 C 776.8 629.9 776.8 630.3 777.5 632.3 C 777.7 632.8 778.1 633.3 778.4 634.2 C 778.4 634.6 778.8 636.2 779.1 636.5 C 777.7 630.7 778.2 632.2 776.6 626.3 C 776.3 625.9 776.0 625.1 776.3 626.4 C 774.9 622.5 774.7 621.2 773.5 617.8 C 773.6 617.2 773.8 616.2 772.5 613.3 C 773.1 613.8 772.9 612.9 773.4 614.1 C 773.8 615.9 774.4 618.3 775.1 620.7 C 775.3 620.9 775.3 620.4 775.8 621.6 C 776.0 622.9 776.5 624.7 777.1 626.1 C 777.0 626.2 776.7 625.7 776.4 625.1 C 778.1 630.5 777.9 628.4 779.1 632.6 C 779.0 631.8 778.2 629.2 779.1 631.3 C 780.4 634.9 780.5 635.9 781.0 637.8 C 781.2 638.1 781.2 637.8 781.6 638.8 C 782.3 641.6 779.1 633.4 780.3 638.3 C 780.7 638.4 782.1 643.0 782.1 643.8 C 781.4 642.4 780.8 639.6 780.5 639.5 C 783.2 647.7 780.2 640.0 782.8 648.5 C 783.0 648.4 783.1 648.3 783.2 648.3 C 782.1 644.9 782.3 644.7 782.6 644.7 C 781.7 641.7 781.6 640.3 780.6 638.1 C 781.5 638.6 781.5 640.4 782.5 643.5 C 782.7 643.2 781.8 640.5 781.9 639.9 C 784.0 647.0 784.9 648.1 786.6 655.1 C 786.5 653.2 787.9 658.7 788.0 658.1 C 786.0 652.4 787.6 654.2 787.4 653.2 C 786.1 649.5 786.2 651.5 785.2 649.5 C 785.2 648.2 785.5 648.6 786.1 648.9 C 787.1 652.3 787.0 651.7 788.0 654.2 C 788.5 656.6 788.6 658.8 787.4 655.9 C 787.7 656.5 789.3 660.8 789.2 661.3 C 787.8 657.1 789.2 661.8 788.2 659.4 C 789.1 662.8 791.4 668.3 792.4 672.3 C 792.5 671.9 793.0 673.3 793.1 673.1 C 791.5 669.3 791.9 668.1 790.6 664.2 C 791.2 665.9 791.1 664.8 790.9 664.0 C 792.0 667.9 792.9 669.8 793.6 672.7 C 793.7 672.7 793.7 672.6 793.8 672.5 C 795.1 677.3 795.0 676.6 796.4 680.0 C 796.7 681.4 795.6 680.0 795.2 679.7 C 795.8 681.2 797.8 687.5 797.0 683.7 C 798.2 687.3 797.5 686.7 798.7 690.3 C 799.0 690.2 797.9 686.8 798.7 687.7 C 799.9 691.1 798.8 689.5 800.0 692.1 C 799.8 692.4 799.6 692.7 800.6 695.6 C 800.1 693.3 800.8 695.8 801.2 696.5 C 800.8 695.1 800.5 693.9 800.3 693.1 C 802.0 698.5 802.4 699.5 803.9 703.8 C 803.1 702.5 803.8 705.0 802.7 702.2 C 803.8 704.7 804.5 708.4 805.2 709.7 C 804.7 707.9 803.8 705.2 803.6 704.0 C 806.6 712.5 808.4 716.7 810.4 724.4 C 810.0 723.2 809.4 721.4 809.2 721.3 C 809.5 722.1 810.0 723.5 809.9 723.5 C 809.0 720.9 808.2 718.4 807.6 717.1 C 807.0 714.7 808.3 718.3 807.5 715.8 C 807.2 715.6 805.9 710.9 806.1 712.9 C 807.7 716.8 808.7 720.9 808.9 723.1 C 810.7 726.4 809.5 722.9 811.3 726.4 C 811.1 726.5 811.4 727.5 811.7 728.8 C 811.7 727.1 813.2 732.4 813.3 732.9 C 812.5 731.2 810.0 724.3 810.9 728.3 C 811.0 725.9 813.5 736.7 813.3 734.3 C 814.9 738.8 814.0 737.6 815.2 739.7 C 815.1 740.0 814.8 739.8 815.2 741.1 C 815.7 742.3 815.9 742.6 816.1 743.1 C 814.2 736.5 815.1 738.0 813.8 733.8 C 814.0 734.6 814.2 735.2 814.2 734.9 C 814.3 734.8 814.4 734.9 814.7 735.9 C 814.4 736.5 815.8 739.1 815.9 740.3 C 815.5 739.1 815.1 737.8 815.1 738.4 C 816.9 743.7 816.3 743.1 818.5 750.6 C 818.0 748.2 819.0 751.1 819.9 753.6 C 821.0 757.2 820.2 756.3 821.6 760.6 C 822.1 759.4 823.1 765.1 825.1 769.8 C 824.6 769.7 826.8 776.5 827.5 777.5 C 827.4 777.9 828.3 780.3 828.8 781.9 C 828.8 782.5 828.1 780.6 828.6 782.3 C 829.1 783.7 828.9 782.0 829.6 783.9 C 830.2 785.9 830.0 786.2 830.6 788.2 C 831.0 788.2 831.5 788.3 832.1 788.3 C 832.4 788.0 830.4 788.0 832.4 787.8 C 835.5 788.0 838.4 788.0 836.0 787.6 C 840.7 787.6 838.0 788.2 842.4 788.3 C 841.2 788.1 841.4 788.0 843.7 787.9 C 845.2 788.2 845.2 788.4 845.7 788.5 C 847.2 788.2 846.8 788.2 850.3 788.3 C 850.4 788.2 850.5 788.0 850.6 787.9 C 852.2 787.9 854.6 787.9 855.0 788.1 C 852.0 788.0 852.7 788.3 851.4 788.4 C 854.4 788.4 860.2 788.8 855.9 788.4 C 860.3 788.3 857.9 788.7 861.4 788.7 C 859.5 788.3 861.3 788.6 864.8 788.6 C 864.7 788.2 867.2 788.6 869.4 788.6 C 869.2 788.3 869.8 788.1 871.8 788.1 C 871.6 788.3 872.9 788.4 875.1 788.4 C 875.1 788.2 870.5 788.0 875.2 788.1 C 877.3 788.2 877.2 788.6 880.7 788.7 C 881.3 789.0 877.4 788.8 878.1 789.2 C 881.1 788.9 881.9 789.2 886.0 789.3 C 884.7 788.6 894.7 788.6 889.9 788.2 C 891.3 788.3 893.4 787.8 894.4 788.2 C 892.8 788.2 895.5 788.5 895.3 788.6 C 897.3 788.6 901.9 788.8 902.1 788.6 C 897.8 788.6 897.9 788.3 896.6 788.1 C 902.9 788.0 908.3 788.2 907.8 788.5 C 907.8 788.4 908.7 788.4 908.9 788.3 C 906.7 788.3 905.5 787.8 908.0 787.8 C 907.3 788.1 909.2 788.2 911.1 788.3 C 911.3 788.0 919.4 788.6 918.0 788.1 C 914.6 788.3 912.1 787.8 914.7 787.6 C 916.7 787.9 921.1 788.2 920.1 788.4 C 921.3 788.3 922.4 788.2 923.5 788.1 C 924.6 787.8 922.1 787.8 922.5 787.6 C 924.2 787.6 926.7 787.6 927.0 787.7 C 922.5 787.7 929.2 788.0 924.6 788.2 C 927.5 788.2 928.1 788.4 930.3 788.4 C 930.3 788.3 931.1 788.3 931.4 788.2 C 929.4 788.4 927.4 788.2 928.0 787.9 C 932.1 787.8 931.4 788.2 934.8 788.3 C 935.8 788.0 940.4 787.6 942.6 787.9 C 938.2 787.8 943.0 788.1 940.3 788.2 C 936.3 788.0 935.2 788.3 933.6 788.6 C 935.4 788.8 938.7 789.0 939.2 788.5 C 937.0 788.5 937.0 788.7 935.8 788.7 C 935.9 788.5 936.6 788.4 938.1 788.3 C 940.0 788.6 944.1 788.3 941.4 788.8 C 944.2 788.6 947.4 789.0 950.3 788.8 C 947.1 788.7 944.7 788.5 943.7 788.3 C 946.4 788.1 949.1 788.6 949.3 788.3 C 948.9 788.0 944.6 788.1 943.7 787.8 C 947.2 787.5 952.5 788.5 948.2 787.8 C 950.1 787.8 952.9 787.9 953.7 788.0 C 951.3 788.0 953.9 788.5 954.9 788.6 C 957.0 788.6 958.6 788.6 959.4 788.4 C 956.2 788.5 953.8 788.0 956.0 788.1 C 956.6 788.3 957.2 788.0 958.2 788.0 C 958.4 788.2 962.0 788.1 962.7 788.2 C 962.4 788.1 960.8 788.0 960.5 787.9 C 962.5 787.8 965.5 787.3 967.1 787.8 C 965.8 787.8 963.9 787.8 963.8 787.9 C 969.6 788.5 971.5 788.9 978.4 789.2 C 977.6 789.2 977.1 789.3 977.4 789.4 C 981.8 789.5 984.6 789.7 984.1 789.9 C 986.9 789.9 988.2 789.7 989.6 789.5 C 986.8 789.3 985.8 789.6 984.0 789.4 C 985.1 789.3 981.7 788.7 980.5 788.4 C 975.8 788.7 975.4 788.1 970.5 788.3 C 971.9 788.0 966.9 788.2 968.3 787.9 C 972.9 788.4 977.2 788.1 983.9 788.4 C 983.0 788.6 982.3 788.9 985.1 789.0 C 989.4 789.2 987.2 788.8 990.7 788.9 C 992.2 789.2 990.1 789.2 991.9 789.3 C 993.1 789.2 996.3 789.3 997.5 789.6 C 992.9 789.5 998.5 789.9 995.4 790.0 C 997.0 790.0 997.9 790.1 998.9 790.2 C 994.3 789.7 1003.2 789.7 999.8 789.4 C 1005.9 789.3 1000.4 790.3 1005.6 790.2 C 1003.0 790.0 1006.2 789.9 1010.0 790.0 C 1011.1 790.3 1014.9 790.4 1018.0 790.6 C 1016.3 790.3 1015.1 790.3 1017.9 790.2 C 1016.3 790.0 1013.7 790.0 1012.3 790.1 C 1012.2 789.9 1011.7 789.8 1011.0 789.7 C 1014.7 789.7 1013.1 789.5 1014.3 789.5 C 1015.4 789.6 1018.1 789.6 1018.9 789.8 C 1018.8 789.7 1019.8 789.7 1019.9 789.6 C 1015.2 789.5 1020.5 789.2 1017.5 789.1 C 1015.4 789.0 1016.9 789.4 1014.2 789.3 C 1011.6 788.9 1016.1 788.9 1017.3 788.6 C 1015.1 788.3 1012.6 788.7 1011.7 788.3 C 1014.4 788.0 1019.0 788.3 1022.8 788.4 C 1022.4 788.0 1029.0 788.6 1029.3 788.1 C 1029.9 788.2 1030.6 788.3 1031.6 788.4 C 1032.5 788.1 1034.0 788.6 1035.0 788.6 C 1035.1 788.4 1034.7 788.2 1033.8 788.1 C 1038.4 788.4 1039.5 788.4 1044.8 788.2 C 1045.8 788.5 1046.9 788.7 1047.4 788.9 C 1046.2 789.0 1045.0 789.0 1044.2 789.1 C 1051.6 789.2 1046.3 788.3 1051.8 788.9 C 1051.5 788.7 1047.7 788.3 1050.4 788.2 C 1055.3 788.7 1061.6 788.3 1062.0 789.3 C 1066.4 789.7 1068.8 789.1 1071.0 789.5 C 1072.3 789.5 1072.7 789.4 1073.2 789.3 C 1071.7 789.1 1070.0 788.9 1068.3 788.7 C 1065.9 788.9 1064.7 788.5 1067.4 789.0 C 1063.7 789.0 1062.6 788.8 1060.5 788.6 C 1065.5 788.4 1070.3 788.8 1070.2 788.3 C 1072.1 788.5 1073.5 788.8 1075.1 789.0 C 1075.2 788.9 1076.1 788.9 1077.2 788.8 C 1077.8 787.0 1078.5 784.8 1078.8 784.8 C 1078.2 786.3 1077.7 788.0 1077.4 789.1 C 1076.0 789.2 1075.7 789.4 1077.8 789.6 C 1077.8 789.6 1077.8 789.6 1077.8 789.6 C 1080.6 780.2 1082.7 775.8 1085.1 767.4 C 1085.3 767.3 1085.3 768.1 1085.8 766.7 C 1085.6 766.5 1085.6 766.1 1085.8 765.2 C 1086.7 762.7 1087.2 761.4 1088.3 757.9 C 1088.5 758.4 1088.9 758.1 1089.5 756.3 C 1089.6 755.0 1090.2 751.0 1091.0 749.2 C 1090.3 751.3 1091.5 748.9 1092.0 747.4 C 1091.2 748.3 1095.4 738.2 1094.0 740.9 C 1095.5 736.6 1096.2 734.9 1096.4 734.9 C 1096.8 733.3 1097.1 732.1 1097.6 730.5 C 1098.3 729.8 1100.5 722.0 1101.0 721.1 C 1100.0 723.6 1100.3 724.5 1101.0 722.4 C 1101.2 720.8 1103.2 713.8 1103.7 712.6 C 1103.7 713.0 1103.8 713.7 1102.8 717.1 C 1104.7 711.5 1104.3 711.3 1104.6 709.2 C 1104.9 709.7 1105.4 706.9 1105.6 706.0 C 1106.4 704.4 1105.7 706.2 1106.0 706.2 C 1106.7 704.3 1107.1 703.7 1108.0 701.0 C 1107.4 701.6 1108.5 698.8 1108.9 697.8 C 1108.9 697.2 1109.2 695.7 1109.9 693.3 C 1109.4 696.8 1115.0 680.1 1113.3 683.9 C 1114.1 680.4 1114.8 680.7 1116.1 676.5 C 1116.2 675.6 1117.1 673.3 1116.1 675.4 C 1117.1 672.0 1116.9 674.1 1118.1 670.0 C 1117.1 671.7 1119.5 666.0 1118.7 666.8 C 1119.9 665.2 1120.2 661.7 1121.8 658.4 C 1121.7 658.3 1122.0 657.4 1122.0 657.2 C 1122.0 656.6 1120.3 661.3 1121.3 658.2 C 1122.7 654.7 1122.2 656.7 1122.5 656.2 C 1125.6 646.4 1129.7 634.6 1133.2 624.2 C 1132.6 625.4 1132.5 625.3 1133.2 623.2 C 1134.9 620.1 1138.5 608.0 1138.9 606.1 C 1139.8 604.9 1141.3 598.8 1141.9 597.6 C 1141.5 598.8 1141.1 601.2 1142.0 598.6 C 1142.0 597.0 1143.1 594.8 1143.6 592.3 C 1144.5 591.0 1146.5 583.5 1146.1 586.8 C 1146.6 585.3 1146.9 584.5 1147.3 583.6 C 1146.8 583.6 1147.4 582.0 1146.3 584.8 C 1148.9 577.7 1149.1 576.2 1151.1 570.8 C 1151.2 569.9 1149.6 574.1 1150.6 570.9 C 1150.7 570.9 1150.8 570.9 1150.9 570.8 C 1151.3 569.7 1151.2 569.3 1151.6 568.8 C 1151.7 568.9 1151.1 570.7 1151.5 570.7 C 1152.2 568.1 1153.3 566.2 1153.3 565.3 C 1152.0 569.0 1152.1 566.7 1153.2 564.4 C 1153.0 565.4 1153.8 563.1 1154.6 560.2 C 1152.3 558.6 1149.4 556.6 1147.9 555.7 C 1146.9 554.5 1151.1 557.9 1151.0 557.5 C 1145.6 553.7 1146.2 553.9 1145.1 553.7 C 1142.4 551.6 1141.6 550.7 1138.0 548.4 C 1136.2 546.9 1139.4 549.1 1137.4 547.6 C 1136.1 546.7 1135.3 546.4 1133.4 545.1 C 1129.3 541.2 1116.7 533.5 1112.2 528.9 C 1114.2 530.7 1111.0 528.7 1108.1 526.5 C 1108.1 526.3 1108.6 526.5 1107.5 525.7 C 1107.5 526.0 1106.4 525.3 1104.5 523.9 C 1104.4 523.7 1104.9 523.8 1103.9 523.0 C 1102.7 522.7 1100.7 520.7 1099.1 519.8 C 1098.7 519.2 1102.6 522.2 1103.1 522.2 C 1098.6 518.6 1097.4 518.3 1094.0 515.6 C 1095.9 517.0 1092.9 514.4 1092.5 514.0 C 1092.9 514.8 1090.0 512.9 1091.8 514.5 C 1090.5 513.5 1088.4 512.1 1088.3 511.8 C 1089.0 512.3 1090.2 513.1 1090.2 513.1 C 1088.5 511.9 1086.7 510.1 1085.6 509.7 C 1086.7 510.6 1087.4 511.2 1087.2 511.3 C 1086.7 511.1 1086.0 510.7 1085.1 510.2 C 1088.3 511.5 1080.5 506.2 1079.8 506.1 C 1079.5 505.2 1079.1 504.9 1079.5 504.9 C 1076.3 502.5 1076.5 503.1 1074.5 501.9 C 1075.4 502.0 1076.2 502.2 1073.4 499.9 C 1073.7 500.7 1070.2 498.1 1070.9 499.2 C 1063.2 493.9 1061.9 492.3 1057.4 489.0 C 1057.2 489.1 1058.6 490.1 1057.2 489.2 C 1055.2 487.6 1053.4 486.1 1052.0 484.9 C 1050.7 484.3 1052.3 485.5 1050.9 484.6 C 1047.7 481.9 1048.7 482.2 1045.9 479.8 C 1042.1 477.4 1043.5 478.2 1041.1 476.9 C 1042.1 477.6 1043.2 478.7 1041.9 477.7 C 1039.8 475.8 1039.1 474.9 1038.6 474.4 C 1040.2 475.6 1041.5 476.5 1042.2 477.2 C 1042.9 477.3 1045.1 479.0 1043.4 477.4 C 1045.6 479.2 1048.2 481.1 1051.7 483.6 C 1050.7 482.4 1054.7 485.6 1053.7 484.5 C 1049.9 481.8 1049.1 481.0 1045.5 478.4 C 1046.1 479.3 1042.4 476.4 1041.7 475.8 C 1041.6 476.0 1039.1 474.1 1039.6 474.9 C 1036.8 472.9 1037.0 472.7 1034.2 470.8 C 1034.1 470.5 1034.5 470.6 1033.4 469.8 C 1032.3 469.5 1031.6 468.4 1030.7 467.7 C 1031.2 468.5 1027.2 465.4 1026.8 465.5 C 1027.9 466.3 1029.4 467.3 1029.5 467.6 C 1025.1 464.3 1028.5 467.2 1029.3 468.1 C 1029.2 467.8 1031.0 468.6 1031.2 469.1 C 1027.4 466.6 1036.3 473.4 1032.9 470.8 C 1030.1 468.7 1030.2 469.1 1027.3 466.9 C 1024.2 463.9 1028.4 466.5 1025.2 463.6 C 1023.0 462.4 1021.5 461.3 1021.2 461.4 C 1020.8 461.0 1020.3 460.5 1019.6 459.8 C 1018.6 459.4 1022.1 462.1 1019.4 460.2 C 1018.0 459.1 1019.8 459.8 1016.8 457.8 C 1015.4 457.2 1020.2 460.7 1017.5 458.9 C 1014.8 456.3 1018.1 459.5 1014.7 457.1 C 1014.5 456.9 1014.0 456.4 1012.9 455.7 C 1012.8 455.4 1013.3 455.5 1012.1 454.6 C 1011.3 454.7 1011.0 453.4 1008.5 451.8 C 1007.0 451.2 1010.9 453.8 1010.1 453.7 C 1007.4 451.2 1005.7 450.5 1004.6 449.7 C 1007.0 451.0 1001.2 446.9 1001.1 446.5 C 1001.6 447.3 1000.4 446.2 997.2 444.3 C 997.1 443.5 993.4 441.4 992.7 440.3 C 992.2 440.1 991.3 439.6 990.8 439.5 C 991.9 440.3 993.0 441.1 992.6 441.0 C 991.7 440.4 990.8 439.7 989.8 439.0 C 988.3 437.6 992.4 439.7 986.3 435.4 C 986.9 436.4 984.3 434.5 982.6 433.5 C 982.7 434.0 985.0 435.2 985.2 435.7 C 983.1 434.5 981.0 432.6 979.8 431.5 C 976.2 429.1 972.0 425.8 966.8 422.2 C 965.7 421.1 971.2 425.1 967.7 422.4 C 966.3 421.3 967.0 422.2 965.0 420.7 C 966.4 420.4 958.4 415.0 953.6 411.6 C 951.8 412.9 950.4 413.8 950.1 413.8 C 949.5 414.6 945.0 417.5 945.5 417.7 C 948.5 415.2 950.6 414.3 952.1 413.5 C 954.9 411.3 949.5 414.9 952.1 413.0 C 952.2 413.0 952.9 412.6 953.6 412.0 C 954.7 412.9 956.0 413.8 955.8 413.9 C 951.8 411.0 957.8 415.7 954.9 414.0 C 954.5 413.7 954.1 413.4 953.6 413.1 C 949.7 415.8 944.0 420.2 945.5 418.7 C 945.5 418.8 947.2 417.7 947.3 417.4 C 943.2 420.1 940.7 422.2 939.0 423.7 C 937.1 424.7 929.7 430.5 931.6 428.9 C 930.9 429.0 936.0 425.9 935.3 426.0 C 927.5 431.3 927.4 431.7 922.3 435.0 C 923.9 434.3 917.0 439.5 917.6 438.9 C 917.6 438.5 916.0 439.3 912.9 441.9 C 913.4 441.1 911.7 442.2 910.1 443.2 C 909.4 444.1 911.5 442.6 911.1 443.1 C 909.6 444.2 908.0 445.4 906.4 446.5 C 906.3 446.4 906.6 446.0 905.5 446.7 C 903.8 448.2 897.6 452.9 898.1 452.3 C 900.6 450.0 893.7 454.9 898.0 451.6 C 896.8 452.4 896.7 452.3 895.1 453.5 C 895.2 453.6 895.2 453.8 895.2 453.9 C 891.8 456.4 893.4 454.6 890.5 456.6 C 890.2 457.0 889.0 457.9 888.6 458.3 C 889.8 457.5 889.9 457.3 891.4 456.2 C 889.8 458.0 894.6 454.4 894.4 454.9 C 891.1 457.3 891.0 456.9 889.6 457.7 C 885.6 460.9 887.5 459.4 883.1 462.3 C 883.1 462.5 884.3 461.7 884.1 462.0 C 878.8 465.6 879.2 464.5 875.6 467.3 C 876.4 466.7 879.6 464.1 877.4 465.7 C 874.9 467.6 874.3 468.5 871.0 470.8 C 870.8 470.8 871.0 470.4 869.9 471.2 C 868.6 472.3 868.6 472.6 867.4 473.7 C 867.0 473.7 865.2 475.1 864.5 475.7 C 863.3 476.2 864.9 475.0 863.4 475.9 C 860.7 477.8 859.4 479.7 857.2 481.1 C 857.1 480.6 854.6 482.6 852.4 484.2 C 851.9 484.0 847.1 487.5 843.9 489.7 C 844.7 489.5 841.4 491.7 842.2 491.5 C 843.8 490.4 844.6 489.9 845.0 489.8 C 841.4 492.4 840.1 492.5 837.6 494.9 C 836.1 495.6 834.3 496.7 831.8 498.3 C 831.6 498.7 836.3 495.5 833.8 497.4 C 833.6 497.4 832.8 498.1 832.0 498.7 C 832.2 498.1 830.2 499.4 828.9 500.0 C 826.9 501.8 822.1 504.6 824.4 503.5 C 821.0 506.0 823.0 503.8 820.4 505.7 C 821.9 505.2 817.4 508.4 819.7 507.1 C 816.2 509.6 816.3 508.9 817.7 507.7 C 814.4 509.9 813.7 510.7 812.0 511.7 C 813.7 510.9 808.8 514.6 811.3 512.6 C 811.9 511.7 808.2 514.6 807.4 514.9 C 808.7 514.4 806.9 515.6 809.4 514.1 C 807.0 515.9 803.4 518.5 800.9 519.8 C 797.9 522.1 795.0 524.2 796.2 522.9 C 793.4 525.0 794.5 524.3 791.5 526.2 C 791.6 526.3 792.4 525.8 792.6 525.7 C 788.6 528.6 789.3 527.8 784.1 531.5 C 784.5 530.7 781.1 533.1 780.0 533.5 C 782.2 532.0 784.0 530.9 785.8 529.8 C 786.0 529.3 784.3 530.5 785.6 529.5 C 785.8 529.4 786.7 528.9 787.5 528.4 C 784.0 530.5 791.6 524.8 789.3 526.8 C 789.3 526.8 789.1 526.8 788.4 527.4 C 789.2 527.2 789.1 527.1 788.6 527.9 C 790.3 526.6 791.9 526.0 792.4 525.2 C 792.2 525.2 790.6 526.4 790.4 526.4 C 794.5 523.2 791.8 525.9 795.1 523.4 C 795.7 522.6 793.9 523.7 793.0 524.1 C 796.1 521.9 798.8 520.0 799.7 519.7 C 802.5 517.6 799.4 519.6 801.3 518.0 C 802.4 517.4 802.4 517.7 804.3 516.4 C 806.4 514.8 803.0 517.0 805.1 515.5 C 807.5 514.1 803.8 517.0 807.3 514.6 C 806.2 514.7 810.4 512.5 810.0 512.4 C 808.0 513.9 807.8 513.4 808.9 513.0 C 813.7 510.3 816.4 506.8 821.2 504.4 C 821.1 504.3 821.8 503.8 822.0 503.6 C 818.5 505.7 813.5 509.3 812.4 509.4 C 809.7 511.4 810.2 511.5 809.8 511.9 C 806.4 513.8 806.6 513.5 808.4 511.7 C 813.7 507.8 816.1 506.5 819.7 504.1 C 821.6 502.5 819.5 504.1 818.7 504.4 C 829.9 497.0 821.1 501.9 825.1 499.2 C 825.1 499.5 825.9 499.0 827.0 498.3 C 827.0 498.1 828.7 497.0 828.9 496.7 C 828.1 497.2 827.8 497.4 827.9 497.1 C 830.6 495.1 829.6 496.2 829.9 496.3 C 827.8 497.7 826.4 498.7 826.2 499.1 C 828.9 497.0 831.1 495.9 832.7 494.3 C 835.4 493.0 831.7 496.2 833.2 495.6 C 832.8 496.2 834.6 493.5 836.6 492.0 C 840.0 489.6 840.0 489.2 843.1 487.0 C 844.0 486.8 840.0 489.3 840.4 489.4 C 841.3 488.8 841.5 488.7 842.3 488.2 C 844.5 486.6 844.2 486.4 845.9 485.1 C 847.0 484.8 847.4 484.2 848.7 483.2 C 850.8 481.8 847.6 484.3 849.8 482.8 C 852.1 481.3 853.6 479.6 854.4 479.2 C 854.6 479.2 854.3 479.6 855.4 478.9 C 858.0 476.8 858.6 476.3 855.2 478.4 C 858.2 476.4 859.4 475.4 858.9 475.3 C 854.5 478.4 853.4 479.2 851.2 480.2 C 850.5 481.1 849.2 481.7 847.5 482.8 C 848.7 482.7 845.6 484.2 844.7 485.1 C 845.9 484.4 847.0 483.7 847.6 483.4 C 843.0 486.6 843.0 486.5 839.3 489.7 C 839.3 489.6 838.8 489.8 838.3 490.1 C 839.5 489.1 842.9 486.8 842.9 486.4 C 840.1 487.9 839.4 489.2 836.2 490.9 C 835.0 492.0 838.8 489.5 836.4 491.3 C 835.1 491.9 833.5 492.8 831.5 494.1 C 829.5 495.5 828.6 496.4 826.9 497.7 C 826.7 497.7 826.5 497.7 824.9 498.8 C 825.1 498.9 826.7 497.9 825.1 499.1 C 819.9 502.2 816.5 504.3 811.6 507.9 C 813.4 506.8 817.5 504.4 815.6 505.7 C 813.3 507.0 810.4 509.6 808.0 510.9 C 807.2 511.3 810.8 509.1 809.7 509.1 C 807.6 510.7 806.2 511.6 805.0 512.3 C 805.1 512.5 802.5 514.2 803.3 514.1 C 805.1 512.8 805.5 512.0 806.0 511.9 C 804.9 513.8 799.0 516.4 795.5 518.9 C 793.3 520.6 797.4 517.9 794.8 519.9 C 793.2 521.2 791.9 521.1 794.4 519.2 C 796.3 518.1 796.8 517.2 797.3 517.3 C 798.1 516.8 799.2 516.0 799.1 515.9 C 797.8 516.8 798.0 516.4 797.1 516.9 C 799.0 515.7 799.0 514.9 800.8 514.0 C 799.7 514.8 799.4 515.2 799.0 515.6 C 804.0 511.9 805.7 511.1 808.6 509.2 C 807.0 510.1 808.6 509.0 808.4 508.8 C 806.3 510.5 802.0 513.2 804.6 511.3 C 806.4 510.5 807.3 508.5 809.2 507.8 C 807.9 508.7 808.2 508.8 807.5 509.4 C 809.4 508.0 809.4 508.3 811.4 507.0 C 817.4 502.2 822.4 499.8 832.0 492.1 C 835.4 489.7 828.9 494.5 829.3 494.6 C 830.3 493.8 830.5 493.8 831.2 493.3 C 831.2 492.8 833.0 492.1 834.0 491.0 C 833.9 491.4 838.4 487.9 840.7 486.6 C 840.8 486.4 840.4 486.4 841.5 485.7 C 848.6 481.3 860.9 471.8 866.2 468.6 C 865.9 468.4 868.2 466.8 868.8 466.2 C 872.2 463.9 870.8 465.2 875.5 461.5 C 877.9 459.7 875.1 462.1 874.6 462.5 C 881.8 457.3 888.1 453.2 892.5 449.6 C 894.8 447.9 892.6 449.9 897.3 446.7 C 897.3 446.1 904.8 441.7 905.7 440.3 C 908.6 438.2 913.8 435.4 911.4 436.5 C 915.3 433.7 912.8 436.0 914.4 434.9 C 917.0 433.0 913.4 434.6 916.1 432.6 C 915.9 433.3 918.2 431.5 919.9 430.6 C 917.8 432.1 916.4 433.1 916.2 433.5 C 918.0 432.0 917.9 432.4 920.9 430.2 C 923.1 428.4 929.4 423.6 931.3 422.9 C 931.4 422.6 930.8 422.9 930.3 423.2 C 932.2 421.8 934.4 420.7 934.1 420.4 C 938.3 417.4 940.2 416.5 942.6 414.4 C 944.4 412.9 941.9 415.3 947.4 411.4 C 947.4 411.2 950.5 408.9 953.6 406.8 C 956.1 408.5 958.5 410.4 959.6 411.4 C 959.7 410.9 960.3 411.8 961.5 412.7 C 961.7 412.7 961.4 412.2 962.5 413.0 C 962.7 413.3 963.5 413.8 964.4 414.4 C 963.7 414.5 967.9 416.7 968.1 417.4 C 967.3 416.8 967.3 417.1 968.1 417.7 C 968.4 417.5 972.3 421.0 971.9 420.4 C 971.1 419.6 968.4 417.8 969.2 418.0 C 972.9 420.5 971.3 419.9 973.8 421.8 C 973.7 421.5 972.2 420.3 973.9 421.4 C 976.4 423.3 974.0 421.6 975.7 423.1 C 977.1 424.0 979.6 425.5 980.5 426.2 C 980.2 426.0 981.0 426.8 981.4 427.1 C 986.3 430.8 997.4 438.4 1002.1 442.3 C 1002.5 442.4 1003.6 443.1 1003.2 442.6 C 1006.1 444.9 1005.9 444.6 1008.8 446.9 C 1008.9 446.7 1008.9 446.6 1009.0 446.5 C 1012.8 449.0 1009.2 447.2 1011.7 449.0 C 1012.2 448.4 1013.1 450.3 1015.4 451.9 C 1015.7 452.0 1016.8 452.7 1016.6 452.2 C 1020.2 454.8 1019.8 455.2 1023.0 457.3 C 1022.3 456.7 1022.1 455.3 1022.6 455.2 C 1023.1 455.8 1024.0 456.6 1025.4 457.6 C 1023.6 456.7 1024.0 458.6 1028.7 461.5 C 1026.1 459.8 1025.3 459.0 1025.9 459.1 C 1029.4 461.6 1030.5 462.7 1033.4 464.8 C 1034.0 464.8 1031.9 463.2 1032.8 463.4 C 1033.6 463.9 1034.0 464.2 1033.9 463.9 C 1037.0 466.2 1036.9 466.5 1040.5 468.8 C 1040.4 469.0 1039.6 468.5 1038.5 467.5 C 1038.5 467.9 1038.4 468.1 1036.4 466.7 C 1036.2 466.3 1037.6 466.8 1034.6 464.9 C 1034.5 465.0 1034.5 465.2 1034.4 465.4 C 1036.5 466.9 1041.3 470.7 1041.9 470.9 C 1040.9 470.1 1039.3 468.8 1040.3 469.1 C 1043.9 471.8 1044.7 472.9 1047.5 475.1 C 1052.8 478.8 1061.8 485.5 1061.1 484.2 C 1064.1 486.6 1063.0 485.8 1065.7 487.9 C 1065.1 487.0 1069.0 490.0 1068.9 489.6 C 1065.4 487.2 1066.5 487.9 1063.1 485.6 C 1063.3 485.5 1063.9 485.7 1065.3 486.6 C 1065.4 486.9 1066.7 487.9 1068.9 489.5 C 1068.6 489.2 1066.8 487.5 1069.2 489.2 C 1069.4 489.4 1069.9 489.8 1071.0 490.6 C 1070.9 490.8 1070.8 490.9 1070.7 491.0 C 1069.3 490.2 1067.7 489.1 1066.6 488.5 C 1067.6 489.2 1067.7 489.4 1068.5 490.0 C 1069.2 490.3 1072.9 493.2 1073.4 493.3 C 1071.8 492.2 1070.9 491.3 1072.6 492.4 C 1072.8 492.7 1075.3 494.6 1076.4 495.2 C 1073.2 492.6 1074.5 493.6 1073.0 492.0 C 1076.8 494.7 1076.0 494.6 1080.4 497.7 C 1080.3 497.9 1080.1 498.1 1078.9 497.4 C 1081.2 499.9 1088.1 504.1 1090.2 505.7 C 1088.8 504.6 1086.8 503.7 1088.9 505.3 C 1089.1 505.2 1090.7 506.5 1091.0 506.6 C 1092.3 506.7 1090.6 505.1 1089.2 503.6 C 1090.9 504.9 1091.4 505.1 1093.1 506.3 C 1093.5 506.8 1091.3 505.9 1093.4 507.5 C 1094.3 507.5 1097.4 510.3 1098.5 510.6 C 1097.0 509.6 1096.1 508.7 1097.7 509.8 C 1097.3 509.8 1100.4 511.9 1100.3 512.1 C 1097.7 510.4 1096.8 510.1 1095.3 509.0 C 1097.2 510.4 1093.5 508.1 1096.8 510.5 C 1098.5 511.4 1099.5 511.8 1103.0 514.3 C 1104.3 515.3 1102.8 514.6 1104.5 515.9 C 1104.3 515.4 1108.2 518.1 1105.6 516.6 C 1106.9 517.5 1107.6 518.1 1108.3 518.6 C 1106.7 517.1 1116.1 523.3 1114.9 522.2 C 1114.5 522.5 1114.6 523.0 1114.9 523.4 C 1117.0 524.5 1118.8 526.1 1123.6 529.6 C 1123.9 529.2 1124.4 530.1 1126.5 531.5 C 1127.1 531.7 1125.4 530.4 1126.8 531.4 C 1129.0 533.1 1129.1 533.2 1129.4 533.6 C 1131.0 534.8 1132.3 535.8 1133.1 536.4 C 1133.3 536.4 1132.8 535.9 1132.5 535.6 C 1138.4 540.4 1142.2 542.6 1147.6 546.5 C 1145.5 544.8 1144.5 544.7 1146.4 546.0 C 1147.5 546.8 1148.6 547.5 1149.4 547.9 C 1148.4 546.8 1148.8 547.3 1151.4 549.3 C 1154.0 551.0 1151.1 548.4 1153.0 549.7 C 1154.8 551.3 1153.4 550.5 1154.4 551.3 C 1155.4 552.0 1156.4 552.7 1157.3 553.4 C 1155.8 552.0 1157.9 553.4 1159.7 554.5 C 1158.0 553.8 1158.7 554.4 1162.1 556.7 C 1162.3 557.1 1160.4 555.9 1161.8 556.9 C 1161.9 557.0 1162.3 557.3 1162.8 557.6 C 1162.5 558.9 1162.0 561.0 1161.1 563.0 C 1161.4 562.1 1161.4 561.7 1161.2 562.0 C 1160.5 564.8 1159.2 567.3 1158.3 569.9 C 1159.4 567.2 1159.3 568.5 1159.9 567.4 C 1158.7 570.1 1158.1 573.1 1156.9 575.3 C 1158.3 571.5 1156.2 575.4 1155.4 577.7 C 1155.6 578.2 1156.9 574.2 1156.9 575.3 C 1156.8 576.5 1155.3 579.6 1155.2 580.8 C 1155.5 580.5 1155.7 579.1 1156.1 578.6 C 1155.4 580.7 1156.5 577.9 1156.0 579.6 C 1155.2 580.8 1155.4 581.9 1155.0 583.0 C 1154.4 584.4 1152.9 587.5 1152.8 588.6 C 1152.9 588.6 1153.5 586.6 1153.8 586.4 C 1152.0 592.4 1150.8 594.4 1149.5 599.7 C 1149.1 600.4 1148.6 601.5 1148.0 603.1 C 1148.2 603.0 1148.0 604.0 1147.6 605.3 C 1146.7 607.7 1145.7 610.1 1144.6 613.1 C 1144.5 612.6 1144.8 611.2 1143.4 615.3 C 1143.5 615.5 1144.1 613.8 1143.6 615.3 C 1143.6 615.3 1143.2 616.3 1143.2 616.5 C 1143.3 616.5 1143.4 616.5 1143.5 616.5 C 1143.9 615.3 1144.2 614.2 1144.6 613.1 C 1144.8 613.2 1145.0 612.9 1145.4 612.0 C 1143.9 616.9 1143.3 616.6 1142.6 619.8 C 1141.9 620.3 1141.4 621.4 1141.9 618.7 C 1141.1 621.5 1140.7 623.5 1140.7 624.2 C 1141.8 620.9 1141.8 621.9 1142.4 621.0 C 1141.6 623.1 1141.8 623.1 1141.5 624.2 C 1140.4 626.7 1141.7 621.6 1140.1 626.5 C 1141.7 622.8 1139.4 629.5 1138.5 632.0 C 1138.8 631.6 1139.1 630.7 1138.8 632.1 C 1136.8 638.7 1135.8 638.1 1135.2 642.0 C 1135.1 641.7 1134.5 643.5 1134.1 644.3 C 1135.1 641.0 1135.3 640.1 1135.7 638.7 C 1135.5 638.9 1135.1 639.9 1134.7 640.9 C 1135.0 640.9 1134.7 641.8 1134.1 643.2 C 1134.0 644.1 1134.6 643.9 1134.0 646.5 C 1133.8 646.7 1133.8 646.4 1133.3 647.7 C 1133.2 648.9 1133.1 646.6 1131.4 652.1 C 1131.9 651.1 1132.2 650.6 1132.3 651.1 C 1131.6 653.7 1131.6 653.1 1130.6 656.6 C 1129.6 657.8 1130.7 654.1 1130.7 653.1 C 1130.0 655.5 1129.7 657.5 1128.7 659.8 C 1129.5 658.0 1129.2 659.9 1128.5 662.1 C 1127.8 664.1 1128.1 661.9 1127.3 664.3 C 1126.7 666.1 1126.7 667.2 1127.4 665.5 C 1126.0 669.6 1126.7 668.7 1125.5 672.2 C 1125.2 672.2 1125.5 671.2 1126.1 670.0 C 1125.9 670.2 1125.9 669.7 1125.4 671.0 C 1124.9 673.3 1123.3 678.3 1122.6 681.1 C 1120.4 685.8 1119.2 691.8 1117.4 696.8 C 1117.7 694.5 1115.2 703.2 1114.0 705.5 C 1113.6 707.0 1112.7 712.1 1113.1 710.2 C 1112.5 710.4 1111.7 713.4 1110.8 715.6 C 1110.9 715.7 1111.0 715.7 1111.1 715.8 C 1109.5 720.8 1108.9 721.7 1108.1 723.2 C 1106.3 729.4 1103.7 735.7 1101.6 743.3 C 1100.6 744.9 1100.2 746.6 1098.6 750.7 C 1098.9 750.9 1097.7 754.3 1096.6 757.6 C 1097.1 757.1 1096.1 760.0 1096.2 760.2 C 1097.2 757.3 1097.2 758.7 1097.8 757.2 C 1096.2 760.9 1096.1 763.4 1094.8 766.2 C 1096.0 762.2 1096.0 760.7 1095.8 759.8 C 1094.4 764.4 1093.5 766.7 1093.0 767.3 C 1093.1 767.8 1093.4 767.4 1093.8 766.5 C 1093.3 768.1 1092.8 769.6 1092.3 771.0 C 1092.0 771.3 1092.6 769.1 1092.1 770.7 C 1091.8 771.9 1091.5 773.2 1091.2 774.3 C 1090.5 775.4 1091.6 772.4 1091.6 771.8 C 1089.5 777.6 1090.9 775.6 1089.9 779.0 C 1089.5 779.6 1089.3 779.1 1088.3 781.8 C 1088.1 783.0 1088.3 783.6 1087.3 786.7 C 1086.6 788.6 1086.9 786.1 1086.2 788.3 C 1086.1 788.8 1085.8 789.7 1085.4 790.6 C 1085.6 790.7 1085.3 791.8 1084.9 793.1 C 1084.7 793.3 1084.1 795.5 1083.8 796.5 C 1083.8 796.5 1083.6 796.8 1083.3 797.3 C 1082.0 797.2 1080.1 797.0 1079.7 797.2 C 1079.8 797.3 1081.8 797.3 1082.1 797.4 C 1079.5 797.4 1077.7 797.4 1076.4 797.5 C 1075.1 796.7 1071.2 797.3 1065.6 796.8 C 1062.4 797.0 1066.6 797.4 1062.5 797.6 C 1059.9 797.3 1062.9 797.2 1062.1 796.9 C 1061.4 796.8 1057.4 796.6 1057.5 796.8 C 1057.5 797.0 1059.6 797.0 1059.9 797.1 C 1057.0 797.3 1056.9 797.0 1055.1 796.8 C 1055.5 797.1 1053.5 797.1 1053.1 797.3 C 1044.8 797.5 1044.6 796.9 1041.0 796.5 C 1041.1 796.7 1039.0 796.6 1038.9 796.7 C 1041.2 796.6 1044.5 797.0 1041.3 797.0 C 1041.7 796.8 1036.9 797.0 1036.6 797.0 C 1037.3 797.2 1040.3 797.2 1039.2 797.5 C 1034.8 797.6 1036.4 796.9 1033.2 797.2 C 1032.8 797.0 1034.7 797.0 1035.4 796.9 C 1034.1 796.9 1032.2 796.9 1031.9 796.8 C 1033.5 796.7 1033.4 796.4 1034.0 796.2 C 1031.9 796.5 1027.7 796.2 1030.7 796.7 C 1026.0 796.5 1021.6 796.7 1024.9 797.0 C 1021.2 797.1 1023.2 796.6 1020.2 796.9 C 1020.5 796.5 1021.4 796.3 1018.8 796.0 C 1018.4 796.2 1016.4 796.2 1016.7 796.5 C 1011.1 796.5 1009.4 796.1 1007.1 795.7 C 1009.3 796.3 1006.4 795.8 1003.8 796.1 C 1002.0 796.0 1003.5 795.6 999.0 795.7 C 1004.0 796.2 993.4 795.7 995.7 796.3 C 989.8 796.0 989.9 796.0 983.9 795.8 C 984.4 795.6 985.9 795.4 988.5 795.4 C 986.7 795.7 993.6 795.8 993.1 795.6 C 993.1 795.5 993.1 795.4 993.1 795.4 C 988.7 795.4 985.7 795.3 983.8 795.0 C 982.9 795.3 980.9 795.4 981.6 795.8 C 977.4 795.3 973.0 795.9 971.0 795.5 C 972.5 795.5 973.9 795.5 973.4 795.3 C 971.7 795.3 969.7 795.4 969.9 795.7 C 973.3 795.8 974.0 795.9 975.7 795.6 C 974.2 795.9 979.2 796.1 975.8 796.2 C 975.8 795.7 968.8 796.3 971.1 796.0 C 974.8 795.8 966.9 795.7 966.5 795.4 C 966.5 795.4 966.5 795.4 966.5 795.4 Z M 810.5 507.7 C 807.7 509.8 811.3 507.7 813.4 506.1 C 812.7 506.5 812.4 506.6 812.3 506.4 C 811.5 507.0 810.7 507.7 810.5 507.7 C 810.5 507.7 810.5 507.7 810.5 507.7 Z M 842.2 491.3 C 843.0 490.2 838.4 493.7 836.5 495.0 C 837.0 494.7 837.7 494.4 836.5 495.2 C 838.6 494.1 839.2 493.0 842.2 491.3 C 842.2 491.3 842.2 491.3 842.2 491.3 Z M 945.5 417.1 C 944.8 417.7 942.9 419.1 942.8 419.0 C 941.7 419.8 941.9 419.8 941.8 420.1 C 939.6 421.7 942.3 419.1 938.9 421.7 C 937.7 423.4 944.8 418.5 945.5 417.1 C 945.5 417.1 945.5 417.1 945.5 417.1 Z M 1009.2 791.0 C 1007.5 790.7 1011.2 790.5 1010.0 790.2 C 1003.8 790.4 1008.8 790.8 1000.1 790.6 C 1000.6 790.7 1001.3 790.8 1001.3 791.0 C 1005.3 790.9 1005.6 790.6 1004.7 791.2 C 1006.6 791.2 1006.9 790.5 1009.2 791.0 C 1009.2 791.0 1009.2 791.0 1009.2 791.0 Z M 927.9 788.6 C 928.6 788.7 929.1 788.8 929.1 789.0 C 931.7 788.9 931.2 788.8 934.7 788.9 C 934.3 788.4 930.9 788.4 927.9 788.6 C 927.9 788.6 927.9 788.6 927.9 788.6 Z M 794.7 675.9 C 794.5 675.2 794.2 674.4 794.0 673.7 C 794.0 674.4 793.0 672.7 794.3 676.3 C 794.4 676.4 794.2 675.8 794.0 675.2 C 794.3 675.7 794.9 677.5 795.0 677.0 C 794.7 676.1 794.7 675.9 794.7 675.9 C 794.7 675.9 794.7 675.9 794.7 675.9 Z M 763.4 591.5 C 765.1 595.5 762.4 584.9 763.4 591.5 C 763.4 591.5 763.4 591.5 763.4 591.5 C 763.4 591.5 763.4 591.5 763.4 591.5 Z M 762.8 601.9 C 762.7 602.1 763.1 603.0 763.2 603.0 C 764.3 606.7 763.0 603.2 763.5 605.3 C 764.7 608.1 763.5 603.6 764.9 607.2 C 764.9 606.4 763.5 604.0 762.8 601.9 C 762.8 601.9 762.8 601.9 762.8 601.9 Z M 1136.4 637.6 C 1137.3 634.5 1137.3 633.6 1137.1 633.1 C 1136.4 635.1 1135.8 636.8 1135.4 637.5 C 1134.3 641.4 1136.5 634.9 1136.8 634.3 C 1137.0 634.7 1136.1 637.5 1136.4 637.6 C 1136.4 637.6 1136.4 637.6 1136.4 637.6 Z M 1139.6 627.6 C 1139.9 626.3 1140.4 624.3 1140.1 624.2 C 1139.5 626.2 1139.3 626.4 1139.2 626.5 C 1138.8 628.2 1139.7 626.1 1139.6 627.6 C 1139.6 627.6 1139.6 627.6 1139.6 627.6 Z M 1133.1 646.4 C 1133.5 645.0 1133.1 645.5 1133.0 645.3 C 1132.3 647.3 1132.1 647.6 1131.4 649.7 C 1131.5 649.7 1131.6 649.7 1131.7 649.7 C 1132.3 648.0 1132.2 647.9 1132.7 646.4 C 1132.8 646.4 1132.9 646.4 1133.1 646.4 C 1133.1 646.4 1133.1 646.4 1133.1 646.4 Z M 1142.4 617.6 C 1144.4 611.8 1144.6 609.2 1145.4 605.5 C 1144.1 609.7 1143.6 613.4 1142.3 616.4 C 1141.3 620.1 1143.0 615.3 1143.1 615.4 C 1143.1 615.5 1142.7 616.8 1142.4 617.6 C 1142.4 617.6 1142.4 617.6 1142.4 617.6 Z M 1159.2 566.6 C 1159.9 565.3 1160.0 563.3 1161.2 560.0 C 1160.9 560.6 1160.6 561.2 1160.4 561.3 C 1158.7 566.0 1160.4 563.0 1159.2 566.6 C 1159.2 566.6 1159.2 566.6 1159.2 566.6 Z M 1145.8 546.3 C 1143.2 544.5 1146.8 547.3 1145.3 546.4 C 1148.0 548.4 1151.0 550.6 1151.3 550.4 C 1148.1 548.3 1147.4 547.9 1145.8 546.3 C 1145.8 546.3 1145.8 546.3 1145.8 546.3 Z M 1128.7 533.9 C 1125.8 532.0 1129.5 535.0 1128.0 534.3 C 1129.1 535.1 1129.0 534.8 1129.2 534.8 C 1130.0 535.5 1130.7 536.0 1131.9 536.9 C 1131.2 536.2 1128.0 533.9 1128.7 533.9 C 1128.7 533.9 1128.7 533.9 1128.7 533.9 Z M 1108.8 718.3 C 1109.4 716.3 1108.9 716.6 1110.3 712.6 C 1108.2 718.8 1108.5 714.8 1106.0 723.1 C 1106.5 721.9 1106.3 722.8 1106.0 723.1 C 1105.2 726.4 1107.2 720.3 1106.5 723.5 C 1107.2 721.2 1106.5 722.2 1107.2 720.0 C 1108.3 717.8 1108.9 716.5 1108.8 718.3 C 1108.8 718.3 1108.8 718.3 1108.8 718.3 Z M 1105.7 722.9 C 1104.8 725.1 1105.4 725.5 1104.8 726.3 C 1104.4 727.4 1104.6 727.3 1104.6 727.5 C 1104.9 726.7 1105.0 726.6 1105.0 726.5 C 1105.6 724.5 1106.1 722.5 1105.7 722.9 C 1105.7 722.9 1105.7 722.9 1105.7 722.9 Z M 1112.5 702.0 C 1111.4 705.9 1110.9 706.8 1110.5 708.8 C 1109.7 709.8 1109.9 711.3 1108.9 713.0 C 1107.8 716.7 1108.8 714.1 1109.3 713.3 C 1108.2 716.9 1108.7 713.9 1107.7 717.5 C 1107.8 718.4 1109.2 713.8 1109.3 714.6 C 1110.2 711.9 1110.0 711.8 1110.5 710.0 C 1110.9 708.7 1110.9 709.2 1111.1 709.1 C 1112.1 705.9 1112.2 706.3 1113.0 703.7 C 1113.0 702.9 1112.5 703.9 1111.6 706.8 C 1112.5 703.8 1112.7 702.4 1114.0 699.0 C 1113.5 701.6 1117.2 690.6 1116.4 691.3 C 1115.4 694.2 1115.9 693.5 1115.6 694.7 C 1114.1 698.4 1113.4 700.8 1112.5 702.0 C 1112.5 702.0 1112.5 702.0 1112.5 702.0 Z M 1131.6 647.4 C 1131.9 646.5 1132.3 645.6 1132.8 644.1 C 1133.1 644.0 1132.4 646.0 1133.2 644.2 C 1134.0 641.8 1134.1 641.2 1134.6 639.7 C 1134.1 640.6 1132.1 645.5 1132.8 642.9 C 1132.4 643.6 1131.8 645.2 1131.1 647.3 C 1132.4 645.0 1130.1 650.6 1129.3 652.8 C 1129.9 652.7 1127.9 656.7 1127.7 658.4 C 1128.4 657.1 1129.6 652.6 1130.3 650.6 C 1130.0 651.6 1132.8 645.2 1131.6 647.4 C 1131.6 647.4 1131.6 647.4 1131.6 647.4 Z M 1103.0 731.8 C 1102.8 732.5 1102.1 735.0 1102.8 733.1 C 1102.5 734.1 1101.7 736.1 1102.4 735.5 C 1102.0 736.7 1101.7 737.8 1101.3 738.9 C 1101.3 738.3 1102.4 735.4 1101.7 736.3 C 1101.1 738.7 1101.2 737.7 1100.3 740.7 C 1100.5 738.9 1099.9 740.6 1100.0 739.1 C 1099.8 740.1 1098.9 742.8 1099.2 742.7 C 1097.8 746.9 1099.3 741.2 1097.4 746.8 C 1097.2 746.5 1098.6 742.6 1099.1 741.3 C 1099.1 740.3 1096.8 748.0 1095.4 752.0 C 1096.8 748.6 1096.1 751.7 1095.7 753.7 C 1095.2 754.9 1095.5 753.5 1094.6 755.6 C 1094.0 757.4 1093.9 758.6 1093.6 758.9 C 1093.1 760.5 1093.5 760.0 1093.5 760.4 C 1092.7 762.9 1092.9 760.6 1091.8 764.4 C 1093.0 762.0 1092.1 765.3 1090.3 770.2 C 1090.5 770.0 1091.1 768.4 1091.3 768.3 C 1091.2 769.3 1089.9 771.8 1089.6 772.5 C 1089.0 774.3 1089.5 773.3 1090.1 771.6 C 1089.8 772.7 1089.5 773.9 1089.2 775.2 C 1091.1 769.7 1093.9 761.0 1097.6 751.2 C 1096.7 753.0 1097.4 750.7 1098.5 747.7 C 1098.8 747.5 1098.4 748.8 1097.9 750.2 C 1099.5 746.9 1098.7 746.5 1100.7 741.2 C 1101.7 738.2 1099.8 744.7 1101.0 741.5 C 1101.6 739.4 1101.9 737.8 1102.5 737.1 C 1103.5 733.4 1103.5 732.2 1105.3 726.7 C 1104.1 729.7 1103.0 730.6 1102.1 734.0 C 1102.2 734.0 1102.7 732.6 1103.0 731.8 C 1103.0 731.8 1103.0 731.8 1103.0 731.8 Z M 1138.9 626.5 C 1139.6 624.5 1139.7 623.6 1140.0 623.1 C 1141.0 619.8 1139.5 623.6 1139.2 624.2 C 1138.8 625.7 1138.8 626.3 1138.9 626.5 C 1138.9 626.5 1138.9 626.5 1138.9 626.5 Z M 933.2 422.2 C 929.6 424.6 930.4 424.6 927.6 426.6 C 929.9 425.1 930.4 425.1 934.2 422.3 C 934.4 421.9 934.3 421.6 933.2 422.2 C 933.2 422.2 933.2 422.2 933.2 422.2 Z M 1135.1 637.5 C 1134.6 640.2 1135.7 634.2 1136.0 634.2 C 1136.8 631.1 1134.9 637.1 1135.5 634.2 C 1134.8 636.9 1134.0 638.5 1133.1 641.8 C 1133.3 641.7 1134.2 639.0 1135.1 636.4 C 1135.4 636.0 1134.9 637.4 1135.1 637.5 C 1135.1 637.5 1135.1 637.5 1135.1 637.5 Z M 969.9 420.7 C 972.4 422.2 967.7 418.3 966.2 417.1 C 966.1 417.5 966.8 418.0 969.9 420.7 C 969.9 420.7 969.9 420.7 969.9 420.7 Z M 908.8 440.1 C 907.4 441.5 913.0 437.1 911.7 438.6 C 913.3 437.5 913.5 437.2 913.6 437.0 C 914.4 436.5 917.0 434.6 916.3 435.4 C 916.8 435.4 912.1 438.3 913.6 437.7 C 912.1 438.9 912.0 438.8 910.8 439.6 C 913.5 437.7 912.2 438.2 908.8 440.5 C 908.8 440.8 910.4 439.6 908.9 441.0 C 908.7 440.9 906.9 441.9 906.9 441.3 C 904.0 443.4 905.8 442.8 902.3 445.2 C 902.6 445.2 904.8 443.7 906.1 442.9 C 905.8 443.6 902.4 445.2 903.3 445.1 C 902.5 445.4 900.5 446.6 900.4 446.3 C 903.0 444.3 904.7 442.8 906.9 441.0 C 904.8 442.2 902.0 445.1 898.5 447.2 C 898.9 447.2 896.8 448.7 897.6 448.5 C 894.8 450.4 896.0 449.0 896.6 448.6 C 895.8 448.8 890.5 452.8 890.9 452.8 C 890.5 452.8 884.1 457.4 884.4 457.6 C 882.5 458.7 879.6 461.3 878.7 461.4 C 877.6 462.3 875.4 463.9 873.0 465.5 C 872.5 466.4 876.6 463.3 876.9 463.3 C 877.7 463.1 872.5 466.3 873.2 466.2 C 873.2 466.3 873.2 466.4 873.2 466.5 C 875.1 465.0 877.0 463.5 878.8 462.1 C 880.2 461.2 878.5 462.5 878.9 462.5 C 880.1 461.3 886.1 456.6 886.4 457.2 C 890.4 454.2 893.3 452.3 894.9 450.8 C 897.2 449.2 893.5 452.0 894.9 451.3 C 901.9 445.9 910.6 440.4 916.4 435.7 C 917.6 434.8 917.2 435.4 917.4 435.5 C 925.4 429.6 918.5 433.9 924.9 429.6 C 924.9 429.9 921.9 432.0 922.1 432.2 C 924.3 430.7 924.8 430.1 927.7 428.1 C 927.7 427.9 927.7 427.8 927.7 427.6 C 930.1 425.9 929.2 427.0 930.5 426.3 C 933.5 424.0 932.8 424.3 934.2 423.8 C 937.1 421.6 939.8 419.5 942.7 417.7 C 944.7 416.0 941.0 418.0 938.0 420.1 C 938.1 419.9 939.0 419.3 939.0 419.1 C 942.4 417.0 943.0 417.4 948.3 413.7 C 944.3 416.1 950.4 412.1 951.1 411.9 C 953.3 410.3 951.7 410.9 950.2 412.0 C 950.5 411.6 951.9 410.8 952.1 410.8 C 952.3 410.0 947.2 413.3 941.8 417.4 C 944.3 415.0 938.0 420.1 940.8 417.3 C 936.4 420.5 940.1 418.4 935.2 421.8 C 935.7 421.6 936.6 421.1 937.0 421.0 C 933.3 423.7 934.4 422.4 930.4 425.2 C 929.8 426.1 932.4 424.2 932.4 424.4 C 928.1 427.1 926.7 427.9 923.8 429.5 C 923.3 430.1 924.0 430.0 919.2 433.2 C 919.2 433.1 919.1 433.0 919.1 432.9 C 921.4 431.4 921.9 430.3 916.2 434.3 C 915.9 434.8 917.6 433.6 919.1 432.5 C 918.5 433.2 916.7 434.6 914.5 436.2 C 913.4 436.9 912.1 437.7 913.5 436.6 C 912.6 436.9 911.8 438.2 908.8 440.1 C 908.8 440.1 908.8 440.1 908.8 440.1 Z M 1156.5 572.3 C 1156.8 571.5 1157.0 570.6 1157.5 569.0 C 1157.4 568.4 1156.5 571.3 1156.3 571.4 C 1155.5 573.8 1156.5 571.8 1156.5 572.3 C 1156.5 572.3 1156.5 572.3 1156.5 572.3 Z M 1146.1 603.2 C 1146.5 603.0 1146.6 601.4 1147.6 598.8 C 1147.5 598.1 1146.6 601.1 1146.3 601.2 C 1145.3 604.2 1147.2 600.3 1146.1 603.2 C 1146.1 603.2 1146.1 603.2 1146.1 603.2 Z M 1150.5 590.0 C 1151.2 588.8 1150.7 588.9 1150.0 591.2 C 1149.8 591.1 1149.8 590.5 1150.2 589.1 C 1149.3 590.7 1149.6 591.7 1148.5 594.5 C 1149.1 593.5 1149.7 592.0 1150.5 590.0 C 1150.5 590.0 1150.5 590.0 1150.5 590.0 Z M 1151.9 585.6 C 1152.2 584.1 1152.9 582.9 1153.6 580.2 C 1153.1 580.9 1151.3 587.0 1151.1 587.9 C 1151.0 588.8 1153.2 582.2 1151.9 585.6 C 1151.9 585.6 1151.9 585.6 1151.9 585.6 Z M 1007.3 448.2 C 1006.4 447.6 1006.5 447.8 1006.3 447.8 C 1003.5 445.2 999.5 442.4 1002.8 444.2 C 999.7 442.3 997.0 439.8 994.4 437.9 C 992.2 436.2 993.3 437.4 991.5 436.2 C 988.8 434.1 993.0 437.0 992.5 436.5 C 992.0 435.8 991.1 435.8 987.8 433.2 C 988.6 434.5 985.0 431.1 985.9 432.5 C 984.1 430.9 983.5 430.8 981.1 429.1 C 981.4 429.5 983.6 431.1 983.9 431.6 C 985.0 432.8 985.2 432.2 983.0 430.7 C 984.3 431.2 987.5 434.1 988.6 434.6 C 989.7 435.8 985.6 432.5 986.7 433.7 C 987.5 434.3 988.3 434.8 988.5 434.8 C 989.9 435.9 990.8 436.7 991.3 437.2 C 990.5 436.7 990.4 436.5 990.4 436.4 C 988.7 435.2 992.0 438.3 988.4 435.7 C 989.0 436.2 990.5 437.4 990.2 437.4 C 991.3 438.4 990.4 436.4 994.1 439.5 C 996.6 440.9 988.3 434.9 990.6 435.7 C 995.7 439.6 992.7 438.0 996.9 441.1 C 996.9 441.0 996.9 440.7 998.0 441.5 C 997.8 441.2 996.3 440.1 995.2 439.3 C 995.4 439.3 996.9 440.5 998.0 441.3 C 997.9 441.0 997.0 440.4 997.1 440.3 C 1000.6 443.0 1000.1 443.5 996.8 441.4 C 996.8 441.7 1001.2 444.8 1002.4 445.5 C 1001.3 444.4 1002.6 445.4 1001.7 444.3 C 1000.8 443.7 1000.9 443.9 1000.6 443.8 C 999.0 442.6 1000.6 443.5 1000.7 443.5 C 1002.6 444.9 1002.4 445.1 1004.4 446.3 C 1003.9 446.0 1003.4 445.8 1003.4 446.0 C 1004.3 446.6 1005.3 447.4 1006.2 448.0 C 1006.2 447.7 1007.4 448.6 1007.3 448.2 C 1007.3 448.2 1007.3 448.2 1007.3 448.2 Z M 958.7 412.0 C 955.6 409.7 957.2 411.2 958.7 412.3 C 958.0 411.9 956.9 411.2 955.8 410.5 C 956.7 411.3 957.6 411.8 960.5 414.0 C 957.9 412.7 960.5 415.3 965.2 418.6 C 966.6 418.8 962.7 415.9 964.2 416.6 C 960.8 414.4 959.0 412.8 958.7 412.0 C 958.7 412.0 958.7 412.0 958.7 412.0 Z M 1139.1 624.2 C 1139.8 622.1 1140.5 619.8 1141.3 617.7 C 1140.8 617.9 1138.4 624.7 1139.1 624.2 C 1139.1 624.2 1139.1 624.2 1139.1 624.2 Z M 1087.5 779.1 C 1087.2 780.1 1087.1 780.1 1087.0 780.2 C 1086.0 783.5 1087.7 778.9 1087.4 780.7 C 1087.8 779.5 1088.2 778.4 1088.5 777.3 C 1088.5 777.0 1086.8 781.5 1087.9 778.0 C 1087.7 778.1 1087.5 779.0 1087.5 779.1 C 1087.5 779.1 1087.5 779.1 1087.5 779.1 Z M 1155.3 574.7 C 1155.8 572.7 1154.9 574.1 1156.6 569.3 C 1155.8 571.1 1155.5 572.1 1154.7 574.9 C 1154.9 574.8 1155.1 574.8 1155.3 574.7 C 1155.3 574.7 1155.3 574.7 1155.3 574.7 Z M 1021.5 457.9 C 1019.3 455.8 1018.4 456.1 1014.0 452.6 C 1016.1 454.7 1018.8 456.1 1021.5 457.9 C 1021.5 457.9 1021.5 457.9 1021.5 457.9 Z M 865.7 471.4 C 867.1 470.5 865.3 471.8 867.7 470.4 C 868.9 469.4 869.4 468.8 871.3 467.4 C 868.6 468.9 863.9 472.6 861.9 473.4 C 859.6 475.1 859.9 475.3 859.2 476.1 C 860.3 475.3 860.8 474.9 861.0 474.9 C 862.3 473.4 864.1 473.1 865.7 471.4 C 865.7 471.4 865.7 471.4 865.7 471.4 Z M 970.8 421.5 C 972.5 422.9 969.6 421.0 968.9 420.8 C 967.7 419.8 968.1 419.9 968.0 419.5 C 966.3 418.4 965.8 418.3 966.1 418.8 C 969.2 421.1 973.0 423.9 970.7 422.7 C 973.7 425.0 972.1 423.3 973.6 424.3 C 975.2 425.7 973.6 424.7 973.5 425.0 C 974.2 425.5 976.5 426.7 976.3 427.1 C 980.8 429.8 978.9 427.7 975.6 424.7 C 972.5 422.9 976.0 425.5 970.8 421.5 C 970.8 421.5 970.8 421.5 970.8 421.5 Z M 1089.7 507.8 C 1089.5 507.5 1087.8 506.3 1087.9 506.2 C 1085.7 505.0 1083.7 504.0 1081.6 502.9 C 1081.8 503.4 1084.5 505.0 1083.6 504.1 C 1084.3 504.8 1086.0 506.2 1086.9 507.1 C 1088.8 508.5 1090.0 508.5 1089.8 509.1 C 1091.8 510.3 1090.7 509.5 1093.6 511.7 C 1089.2 508.1 1095.4 512.8 1096.0 512.7 C 1093.3 510.7 1090.9 509.0 1091.0 509.5 C 1089.1 508.0 1087.0 506.3 1086.8 505.8 C 1087.0 505.8 1088.6 507.0 1089.7 507.8 C 1089.7 507.8 1089.7 507.8 1089.7 507.8 Z M 1077.7 500.4 C 1078.5 500.8 1079.3 501.3 1080.5 502.3 C 1079.9 501.7 1079.7 501.4 1080.0 501.3 C 1077.6 499.6 1076.9 499.3 1076.3 498.5 C 1074.1 496.9 1076.5 499.3 1073.2 496.7 C 1073.4 497.0 1075.1 498.1 1075.0 498.3 C 1075.4 498.3 1076.8 499.2 1077.7 500.4 C 1077.7 500.4 1077.7 500.4 1077.7 500.4 Z M 1049.2 479.0 C 1046.8 477.2 1050.4 480.0 1049.0 479.3 C 1049.7 479.7 1054.2 483.2 1053.4 482.9 C 1054.5 484.3 1059.8 487.0 1059.0 487.1 C 1060.1 487.9 1059.9 487.5 1060.1 487.5 C 1056.8 485.2 1056.9 485.0 1059.3 486.7 C 1059.1 486.3 1057.0 484.9 1055.7 483.9 C 1055.4 483.9 1056.6 484.9 1056.3 484.9 C 1053.6 482.7 1051.7 481.0 1049.2 479.0 C 1049.2 479.0 1049.2 479.0 1049.2 479.0 Z M 973.3 793.8 C 976.0 793.8 977.7 793.8 979.1 793.7 C 978.2 793.5 976.9 793.7 975.6 793.7 C 975.2 793.5 976.5 793.5 977.9 793.5 C 976.5 793.2 971.7 793.4 973.3 793.8 C 973.3 793.8 973.3 793.8 973.3 793.8 Z M 996.4 794.0 C 999.0 794.1 1000.6 794.0 1000.9 793.8 C 999.8 793.6 1000.3 793.9 998.6 793.9 C 997.6 793.8 996.9 793.7 996.3 793.6 C 995.1 793.5 995.4 793.7 995.1 793.8 C 994.2 793.8 994.1 793.7 993.9 793.6 C 990.9 793.9 997.6 793.6 996.4 794.0 C 996.4 794.0 996.4 794.0 996.4 794.0 Z M 1065.0 490.6 C 1065.7 491.3 1066.2 491.9 1068.5 493.5 C 1068.2 493.0 1070.0 494.4 1071.4 495.4 C 1069.4 493.6 1068.2 492.9 1065.0 490.6 C 1065.0 490.6 1065.0 490.6 1065.0 490.6 Z M 1099.8 739.0 C 1101.1 735.9 1100.5 735.8 1102.3 731.3 C 1102.2 731.2 1102.1 731.2 1102.0 731.1 C 1101.3 734.1 1100.7 735.3 1099.8 739.0 C 1099.8 739.0 1099.8 739.0 1099.8 739.0 Z M 776.7 638.0 C 777.0 638.2 775.8 634.9 775.9 634.6 C 775.2 634.2 775.4 632.0 773.2 625.8 C 773.3 625.6 773.5 626.0 773.8 626.8 C 772.1 621.6 773.9 628.5 773.9 629.3 C 775.3 633.3 775.3 634.0 776.7 638.0 C 776.7 638.0 776.7 638.0 776.7 638.0 Z M 894.0 452.6 C 894.2 452.4 893.6 452.8 893.1 453.2 C 892.4 453.6 891.8 454.1 891.3 454.4 C 891.5 454.8 894.6 452.8 892.4 455.0 C 893.2 454.5 893.3 454.3 893.2 454.3 C 897.6 450.0 901.4 449.3 907.3 444.4 C 908.2 443.7 908.0 443.7 908.1 443.5 C 907.4 444.0 907.3 444.0 907.2 444.0 C 906.6 445.0 901.1 448.2 903.5 446.4 C 903.3 446.4 902.5 447.0 902.5 447.0 C 901.9 447.5 901.3 447.9 900.6 448.4 C 901.0 448.3 902.3 447.4 902.6 447.4 C 899.6 449.4 895.9 451.8 897.8 450.0 C 895.9 451.3 895.3 452.0 894.1 453.0 C 892.9 453.8 892.8 453.5 894.0 452.6 C 894.0 452.6 894.0 452.6 894.0 452.6 Z M 869.8 469.8 C 866.8 471.8 868.0 471.4 865.1 473.4 C 867.0 472.4 869.1 470.4 871.7 468.9 C 871.3 469.0 870.0 469.9 869.8 469.8 C 869.8 469.8 869.8 469.8 869.8 469.8 Z M 924.0 432.2 C 923.5 433.1 926.0 431.3 928.8 429.4 C 929.3 428.5 926.8 430.2 924.0 432.2 C 924.0 432.2 924.0 432.2 924.0 432.2 Z M 911.9 440.7 C 909.2 442.8 915.3 438.4 913.8 439.9 C 915.1 439.0 916.5 438.0 916.6 438.1 C 917.6 437.3 917.5 437.1 919.4 435.9 C 919.3 435.7 916.3 438.0 916.5 437.5 C 914.4 439.2 914.1 439.4 911.9 440.7 C 911.9 440.7 911.9 440.7 911.9 440.7 Z M 910.0 442.0 C 908.2 443.4 910.6 442.5 912.9 440.9 C 912.0 441.2 911.4 441.3 910.0 442.0 C 910.0 442.0 910.0 442.0 910.0 442.0 Z M 1127.3 537.0 C 1126.0 536.1 1126.6 536.9 1125.1 535.8 C 1125.0 535.9 1130.5 539.9 1125.8 536.6 C 1127.1 538.0 1128.6 538.4 1130.6 539.9 C 1130.1 539.4 1129.6 539.0 1130.8 539.8 C 1131.8 540.1 1126.3 536.6 1127.3 537.0 C 1127.3 537.0 1127.3 537.0 1127.3 537.0 Z M 1121.7 533.0 C 1120.6 532.2 1121.1 532.6 1121.6 533.0 C 1121.3 533.0 1119.8 531.8 1118.7 531.1 C 1118.8 530.9 1120.2 532.8 1119.9 532.8 C 1124.8 536.1 1121.6 533.3 1121.7 533.0 C 1121.7 533.0 1121.7 533.0 1121.7 533.0 Z M 1116.9 529.8 C 1114.1 527.4 1109.8 524.3 1107.5 523.1 C 1109.3 524.9 1115.1 529.0 1116.9 529.8 C 1116.9 529.8 1116.9 529.8 1116.9 529.8 Z M 1147.3 551.9 C 1142.3 547.7 1130.7 540.1 1140.3 547.4 C 1140.2 547.0 1146.9 551.6 1149.9 554.0 C 1150.1 554.0 1154.0 556.4 1153.8 556.5 C 1156.6 558.2 1146.4 550.8 1147.3 551.9 C 1147.3 551.9 1147.3 551.9 1147.3 551.9 Z M 1103.2 520.8 C 1104.9 521.8 1103.5 520.1 1105.6 521.9 C 1107.0 522.8 1105.4 521.5 1105.9 521.7 C 1103.0 519.6 1096.8 515.6 1096.6 514.9 C 1095.1 514.0 1094.4 513.8 1091.7 511.8 C 1091.5 511.9 1101.8 518.7 1103.4 520.7 C 1103.1 520.7 1099.5 518.1 1103.2 520.8 C 1103.2 520.8 1103.2 520.8 1103.2 520.8 Z M 1098.1 737.6 C 1098.3 738.1 1099.6 733.5 1099.6 734.6 C 1100.1 732.0 1101.0 729.8 1101.7 726.9 C 1102.0 726.1 1102.4 726.7 1103.7 722.9 C 1103.4 722.7 1102.9 724.6 1103.3 722.7 C 1104.4 719.2 1104.4 720.4 1105.6 716.3 C 1105.0 716.6 1108.3 707.8 1107.6 708.3 C 1106.9 710.5 1107.2 710.5 1105.9 713.9 C 1105.5 715.1 1105.5 714.4 1105.1 715.9 C 1105.1 714.7 1106.1 713.2 1106.4 711.5 C 1106.1 711.7 1105.2 714.4 1104.9 714.6 C 1104.5 716.2 1105.2 714.2 1105.2 714.7 C 1103.9 719.0 1104.7 714.0 1103.2 718.7 C 1103.8 717.9 1103.8 717.9 1103.8 719.0 C 1103.1 720.7 1101.4 726.4 1102.1 723.2 C 1101.8 723.3 1101.0 726.9 1101.3 726.6 C 1100.8 728.4 1100.6 728.5 1100.4 728.6 C 1099.0 733.3 1099.1 734.1 1099.7 733.4 C 1099.6 734.5 1098.9 734.8 1098.1 737.6 C 1098.1 737.6 1098.1 737.6 1098.1 737.6 Z M 1150.0 581.9 C 1149.5 584.4 1150.8 579.1 1151.8 576.6 C 1150.7 579.6 1150.5 578.8 1149.4 582.1 C 1149.9 580.9 1150.0 581.1 1149.3 583.2 C 1149.3 583.7 1150.9 578.9 1150.0 581.9 C 1150.0 581.9 1150.0 581.9 1150.0 581.9 Z M 1086.1 507.8 C 1085.3 506.9 1080.4 503.6 1077.9 501.7 C 1078.0 502.4 1084.7 506.3 1085.1 507.3 C 1086.5 508.3 1084.4 506.6 1086.1 507.8 C 1086.1 507.8 1086.1 507.8 1086.1 507.8 Z M 1112.1 696.7 C 1112.4 695.6 1112.1 696.2 1112.0 696.7 C 1111.9 696.3 1112.8 694.0 1113.3 692.3 C 1112.3 694.6 1113.2 691.7 1112.7 692.0 C 1113.1 690.8 1113.3 690.2 1113.3 689.9 C 1113.9 690.0 1115.2 683.0 1112.9 689.7 C 1113.6 688.6 1113.4 689.1 1112.6 692.0 C 1111.4 694.9 1110.8 697.5 1110.1 698.4 C 1109.5 700.4 1109.5 701.2 1108.6 703.8 C 1108.1 704.3 1107.2 706.6 1107.5 704.4 C 1105.9 709.1 1107.6 706.4 1106.4 710.3 C 1105.1 713.9 1106.7 708.2 1106.2 708.9 C 1105.9 709.9 1105.8 709.6 1105.7 709.9 C 1105.2 711.2 1105.5 711.4 1106.0 710.0 C 1105.9 710.5 1104.9 714.4 1104.9 713.2 C 1104.3 715.5 1106.9 710.4 1107.6 707.1 C 1108.2 705.3 1108.7 705.6 1108.1 707.4 C 1108.6 706.9 1109.1 703.0 1109.4 704.2 C 1109.9 702.8 1110.3 701.4 1110.8 699.9 C 1110.6 700.1 1110.4 700.9 1110.2 700.9 C 1110.7 699.5 1111.2 698.0 1111.7 696.5 C 1111.4 697.9 1111.5 697.9 1112.1 696.7 C 1112.1 696.7 1112.1 696.7 1112.1 696.7 Z M 1098.1 516.6 C 1095.8 514.9 1095.1 514.6 1093.3 513.4 C 1093.8 514.0 1098.9 517.6 1098.1 516.6 C 1098.1 516.6 1098.1 516.6 1098.1 516.6 Z M 1091.3 755.3 C 1091.5 755.0 1092.1 753.1 1092.2 753.2 C 1091.2 756.7 1092.6 753.0 1092.2 756.1 C 1093.4 751.6 1093.2 749.5 1091.1 755.1 C 1089.8 759.3 1092.7 750.9 1091.3 755.3 C 1091.3 755.3 1091.3 755.3 1091.3 755.3 Z M 1095.7 742.4 C 1096.5 739.7 1094.2 746.2 1093.6 747.6 C 1093.5 747.5 1093.4 747.4 1093.3 747.3 C 1092.5 751.4 1094.3 746.6 1093.7 750.4 C 1095.2 746.3 1095.9 744.6 1097.0 740.8 C 1096.8 740.9 1096.6 741.8 1096.6 741.9 C 1095.7 744.6 1095.9 742.3 1097.0 739.5 C 1096.6 740.2 1095.8 742.9 1095.1 744.7 C 1095.3 744.3 1095.6 743.7 1095.7 743.9 C 1095.0 746.3 1095.1 745.2 1094.5 746.9 C 1094.4 746.8 1095.5 742.4 1095.7 742.4 C 1095.7 742.4 1095.7 742.4 1095.7 742.4 Z M 908.3 790.6 C 910.6 790.6 906.0 790.1 906.4 789.6 C 904.0 789.5 903.4 789.7 901.8 789.7 C 902.5 789.9 905.2 790.0 906.2 790.2 C 905.7 790.6 902.7 790.1 901.6 790.3 C 900.0 790.8 907.4 790.2 908.3 790.6 C 908.3 790.6 908.3 790.6 908.3 790.6 Z M 1128.3 645.8 C 1128.6 644.6 1128.3 645.2 1128.2 645.8 C 1128.1 645.5 1128.7 643.6 1128.9 643.7 C 1129.4 642.0 1128.4 644.6 1129.0 642.6 C 1128.9 642.1 1128.0 645.6 1128.1 645.7 C 1127.3 648.2 1127.5 646.2 1127.1 646.8 C 1126.4 648.9 1127.0 648.2 1125.9 651.2 C 1126.7 649.4 1127.4 647.9 1128.3 645.8 C 1128.3 645.8 1128.3 645.8 1128.3 645.8 Z M 1089.4 763.2 C 1089.3 763.8 1089.8 760.3 1090.9 757.7 C 1092.2 753.9 1089.9 759.7 1091.0 756.4 C 1090.0 759.2 1089.1 762.8 1087.7 767.3 C 1087.5 768.5 1089.7 761.2 1088.5 765.4 C 1088.7 765.3 1089.0 764.3 1088.9 764.2 C 1089.2 763.3 1089.3 763.3 1089.4 763.2 C 1089.4 763.2 1089.4 763.2 1089.4 763.2 Z M 1090.2 758.3 C 1090.0 758.4 1089.7 759.4 1089.8 759.5 C 1089.3 760.8 1089.1 760.6 1089.5 759.2 C 1088.6 760.7 1089.2 761.1 1087.9 764.6 C 1088.6 763.3 1089.0 762.7 1087.7 765.8 C 1087.0 768.8 1089.9 759.8 1090.2 758.3 C 1090.2 758.3 1090.2 758.3 1090.2 758.3 Z M 944.6 790.8 C 944.3 790.6 941.9 790.7 940.1 790.6 C 942.3 790.4 951.5 790.7 952.6 790.9 C 953.6 790.8 954.6 790.8 954.9 790.9 C 954.8 790.8 957.4 790.7 956.0 790.6 C 956.3 790.5 958.2 790.5 958.2 790.4 C 961.7 790.5 957.2 790.6 958.2 790.8 C 962.3 790.6 961.4 790.8 966.2 790.9 C 965.4 790.6 960.1 790.6 960.5 790.2 C 956.8 790.5 952.7 790.2 950.4 789.9 C 953.9 790.4 940.7 790.5 934.5 790.4 C 934.8 790.1 932.5 790.2 930.0 790.0 C 928.3 789.6 928.8 790.4 932.2 790.2 C 932.1 790.5 927.5 790.2 925.5 790.3 C 927.7 790.5 926.4 790.6 927.6 790.7 C 932.0 790.8 928.1 790.6 928.9 790.4 C 930.0 790.4 931.1 790.4 932.3 790.4 C 926.2 790.9 940.9 790.6 935.6 790.6 C 940.2 790.6 940.3 791.0 944.6 790.8 C 944.6 790.8 944.6 790.8 944.6 790.8 Z M 1051.3 792.1 C 1052.1 792.0 1055.6 791.8 1055.9 792.1 C 1060.4 791.9 1056.1 791.6 1061.3 791.6 C 1060.9 791.5 1058.9 791.5 1058.8 791.4 C 1056.9 791.5 1055.0 791.5 1055.7 791.9 C 1053.4 791.8 1052.8 791.9 1051.3 792.0 C 1051.7 791.8 1052.6 791.7 1054.6 791.8 C 1054.7 791.5 1053.8 791.3 1050.9 791.3 C 1049.7 791.6 1050.8 791.8 1051.3 792.1 C 1051.3 792.1 1051.3 792.1 1051.3 792.1 Z M 1062.5 791.7 C 1063.1 791.8 1063.8 791.9 1063.8 792.1 C 1065.6 792.5 1064.1 791.7 1065.8 791.7 C 1067.1 791.7 1066.8 791.9 1067.1 792.0 C 1069.1 792.0 1070.6 791.9 1071.7 792.1 C 1074.6 791.9 1067.9 791.7 1066.8 791.6 C 1064.6 791.5 1065.6 791.9 1062.5 791.7 C 1062.5 791.7 1062.5 791.7 1062.5 791.7 Z M 1085.0 776.1 C 1085.4 775.8 1085.4 774.2 1086.0 772.8 C 1085.4 773.6 1084.5 776.9 1084.9 774.4 C 1083.7 777.5 1083.7 777.7 1082.7 780.9 C 1081.8 782.6 1082.9 781.3 1083.9 777.8 C 1083.8 778.3 1083.4 779.8 1083.4 780.2 C 1082.2 781.6 1081.2 788.1 1081.9 784.4 C 1082.3 783.5 1082.6 783.0 1082.9 782.6 C 1082.9 781.6 1085.4 774.4 1085.0 776.1 C 1085.0 776.1 1085.0 776.1 1085.0 776.1 Z M 1120.2 668.3 C 1118.8 672.6 1118.8 672.6 1117.3 676.9 C 1117.2 677.0 1117.2 676.7 1117.5 675.8 C 1117.0 676.7 1116.6 678.1 1116.1 680.0 C 1116.2 679.9 1116.5 679.0 1116.4 678.9 C 1117.8 675.6 1116.8 678.5 1116.9 679.1 C 1118.6 675.0 1119.2 671.3 1120.2 669.5 C 1120.7 667.9 1120.0 669.8 1120.2 668.3 C 1120.2 668.3 1120.2 668.3 1120.2 668.3 Z M 780.5 640.8 C 780.2 640.2 779.6 638.5 779.5 638.9 C 780.1 640.4 780.6 641.5 781.2 643.1 C 780.2 640.0 780.8 640.2 779.5 636.3 C 779.7 637.6 779.3 637.5 780.5 640.8 C 780.5 640.8 780.5 640.8 780.5 640.8 Z M 1081.4 786.8 C 1081.2 786.7 1081.1 786.7 1081.5 785.4 C 1081.4 784.7 1080.4 788.3 1080.2 788.2 C 1079.8 789.4 1080.1 789.2 1079.6 790.7 C 1079.9 790.3 1080.8 787.4 1080.7 788.9 C 1080.4 789.8 1080.3 789.9 1080.2 789.9 C 1079.6 792.3 1080.8 789.0 1081.4 786.8 C 1081.4 786.8 1081.4 786.8 1081.4 786.8 Z M 897.1 790.2 C 898.7 790.2 897.2 790.0 896.0 789.9 C 899.4 789.6 894.2 789.4 894.1 789.0 C 895.4 789.3 900.0 789.2 900.7 789.3 C 902.1 789.3 900.6 789.0 904.3 788.9 C 903.9 788.7 899.9 788.9 900.8 789.1 C 899.9 788.7 895.9 789.1 896.4 788.7 C 891.4 788.6 890.1 788.9 889.5 789.2 C 894.5 789.1 891.8 789.7 896.1 789.6 C 896.1 789.7 894.7 789.7 893.8 789.7 C 894.1 789.9 896.0 790.0 897.1 790.2 C 897.1 790.2 897.1 790.2 897.1 790.2 Z M 1014.9 791.5 C 1017.5 791.5 1017.3 791.2 1017.1 790.9 C 1016.1 791.0 1014.6 791.0 1012.6 791.0 C 1013.1 791.2 1016.2 791.1 1014.9 791.5 C 1014.9 791.5 1014.9 791.5 1014.9 791.5 Z M 915.3 789.9 C 915.5 790.1 916.4 790.0 916.5 790.0 C 919.3 790.0 919.9 790.2 920.9 790.3 C 922.5 790.3 922.0 790.1 922.1 789.9 C 919.4 790.1 920.0 789.7 916.5 789.7 C 916.7 789.9 916.2 789.9 915.3 789.9 C 915.3 789.9 915.3 789.9 915.3 789.9 Z M 991.1 791.0 C 992.5 791.0 991.8 790.9 991.1 790.9 C 992.6 790.5 997.3 790.9 999.0 790.7 C 999.2 790.5 993.4 790.4 1000.0 790.4 C 998.7 790.1 992.9 790.3 989.9 790.2 C 990.5 789.9 994.5 790.0 994.2 789.6 C 990.8 789.7 987.0 789.9 986.5 790.4 C 991.6 790.5 989.9 790.7 991.1 791.0 C 991.1 791.0 991.1 791.0 991.1 791.0 Z M 985.5 790.7 C 985.9 790.9 986.9 790.7 988.8 790.7 C 985.9 790.3 984.3 790.4 978.6 790.3 C 978.6 790.4 978.6 790.4 978.6 790.5 C 977.5 790.5 976.3 790.5 975.2 790.5 C 980.2 790.9 981.4 790.7 986.6 790.6 C 986.8 790.7 986.1 790.7 985.5 790.7 C 985.5 790.7 985.5 790.7 985.5 790.7 Z M 1097.3 736.9 C 1096.7 738.3 1096.1 739.4 1095.2 742.0 C 1095.5 742.0 1096.2 740.5 1097.3 736.9 C 1097.3 736.9 1097.3 736.9 1097.3 736.9 Z M 910.9 789.7 C 907.7 789.8 913.9 789.7 912.1 789.3 C 909.7 789.2 907.1 789.1 906.6 788.7 C 902.0 789.1 911.5 789.2 910.9 789.7 C 910.9 789.7 910.9 789.7 910.9 789.7 Z M 931.3 789.1 C 932.6 789.2 932.5 789.7 931.2 789.3 C 928.0 789.3 933.9 789.7 929.0 789.5 C 931.1 789.7 935.8 789.9 938.0 789.7 C 937.9 789.5 933.6 789.5 933.5 789.2 C 933.3 789.2 934.0 789.2 934.6 789.2 C 934.2 789.0 933.2 789.2 931.3 789.1 C 931.3 789.1 931.3 789.1 931.3 789.1 Z M 948.1 789.9 C 946.3 789.6 944.1 789.5 940.2 789.4 C 942.7 789.7 944.1 790.0 948.1 789.9 C 948.1 789.9 948.1 789.9 948.1 789.9 Z M 800.4 697.2 C 801.3 699.8 800.8 697.3 800.8 696.9 C 800.0 694.3 799.8 694.6 798.9 691.5 C 798.9 692.8 800.2 695.3 800.4 697.2 C 800.4 697.2 800.4 697.2 800.4 697.2 Z M 797.4 687.4 C 797.5 687.0 796.1 683.3 796.2 682.9 C 795.0 681.2 794.7 677.1 794.4 677.5 C 794.1 676.7 793.9 675.8 793.4 674.2 C 793.9 677.6 796.3 684.2 797.4 687.4 C 797.4 687.4 797.4 687.4 797.4 687.4 Z M 967.3 789.4 C 970.3 789.5 966.4 788.9 969.5 789.0 C 969.7 788.8 963.8 788.7 967.3 788.6 C 962.7 788.3 967.6 789.3 967.3 789.4 C 967.3 789.4 967.3 789.4 967.3 789.4 Z M 1022.2 789.7 C 1022.0 789.9 1026.1 789.7 1027.8 789.8 C 1027.7 789.7 1026.4 789.7 1025.6 789.7 C 1026.0 789.6 1026.5 789.5 1027.7 789.5 C 1026.7 789.2 1023.8 789.6 1022.2 789.7 C 1022.2 789.7 1022.2 789.7 1022.2 789.7 Z M 961.8 795.1 C 959.9 794.7 957.4 794.4 956.1 794.9 C 954.0 794.6 957.4 794.5 954.9 794.3 C 951.7 794.5 953.2 794.1 947.9 794.2 C 949.0 793.8 945.1 793.8 944.5 793.6 C 946.6 793.5 949.3 793.9 950.3 793.6 C 948.5 793.6 949.5 793.3 950.3 793.5 C 953.8 793.7 946.0 793.9 950.3 794.2 C 951.6 793.7 957.8 794.6 961.8 794.6 C 960.2 794.9 964.9 795.1 961.8 795.1 C 961.8 795.1 961.8 795.1 961.8 795.1 Z M 941.1 794.2 C 938.2 794.2 936.8 793.4 937.6 793.5 C 937.6 793.6 940.8 793.7 941.1 793.5 C 940.3 793.5 939.7 793.5 939.9 793.4 C 945.0 793.5 943.2 793.8 944.5 794.0 C 941.6 794.1 940.9 793.9 939.8 794.0 C 940.5 794.1 941.2 794.1 941.1 794.2 C 941.1 794.2 941.1 794.2 941.1 794.2 Z M 882.1 788.0 C 882.5 788.2 883.3 788.0 884.4 788.0 C 884.4 788.4 890.3 787.9 891.0 788.1 C 889.6 788.3 886.7 788.3 885.3 788.4 C 886.8 788.5 887.1 788.6 888.7 788.4 C 888.2 788.7 885.0 788.7 884.0 788.9 C 883.7 788.7 882.1 789.0 881.7 788.8 C 886.2 788.7 879.5 788.0 882.1 788.0 C 882.1 788.0 882.1 788.0 882.1 788.0 Z M 993.0 789.2 C 993.3 788.9 988.4 788.1 992.6 787.7 C 993.6 788.0 994.3 788.3 994.0 788.7 C 996.7 788.5 998.0 788.8 999.5 788.5 C 1004.9 789.6 995.6 788.4 993.0 789.2 C 993.0 789.2 993.0 789.2 993.0 789.2 Z M 1010.9 789.1 C 1010.0 789.4 1012.5 789.4 1012.1 789.7 C 1009.9 789.4 1003.0 789.7 1005.3 789.5 C 1007.6 789.4 1007.5 789.1 1010.9 789.1 C 1010.9 789.1 1010.9 789.1 1010.9 789.1 Z M 1031.4 468.8 C 1034.5 470.7 1035.7 472.4 1033.9 471.3 C 1034.8 471.5 1030.2 468.4 1031.4 468.8 C 1031.4 468.8 1031.4 468.8 1031.4 468.8 Z M 1144.1 543.7 C 1141.5 541.6 1139.8 540.5 1139.7 540.1 C 1142.5 542.0 1142.0 541.9 1144.3 543.6 C 1144.6 543.7 1146.2 544.6 1146.3 544.9 C 1145.0 543.9 1145.0 544.2 1144.1 543.7 C 1144.1 543.7 1144.1 543.7 1144.1 543.7 Z M 1083.9 796.6 C 1084.1 796.4 1084.6 795.2 1084.6 796.0 C 1084.3 796.6 1084.1 797.4 1083.9 798.1 C 1081.0 798.1 1078.1 798.2 1075.9 798.4 C 1075.8 798.2 1075.7 798.1 1075.6 797.9 C 1080.3 798.1 1082.0 797.9 1083.6 797.8 C 1083.7 797.4 1083.8 797.0 1083.9 796.6 C 1083.9 796.6 1083.9 796.6 1083.9 796.6 Z M 1086.6 790.5 C 1086.7 789.8 1085.8 791.3 1086.6 788.9 C 1086.7 789.2 1088.4 785.3 1087.8 787.4 C 1087.4 787.8 1087.0 788.9 1086.6 790.5 C 1086.6 790.5 1086.6 790.5 1086.6 790.5 Z M 895.7 794.6 C 892.8 794.6 896.8 794.9 896.6 795.0 C 894.6 794.9 891.8 794.9 890.9 794.7 C 893.0 794.8 894.6 794.3 895.7 794.6 C 895.7 794.6 895.7 794.6 895.7 794.6 Z M 938.7 794.3 C 944.7 794.3 942.0 794.8 947.9 795.0 C 945.5 795.2 940.2 795.1 938.6 795.4 C 938.8 795.2 937.4 795.1 937.5 794.9 C 939.6 794.9 940.0 795.1 942.1 795.1 C 941.4 794.7 941.3 794.8 942.2 794.5 C 940.6 794.5 939.6 794.5 938.6 794.6 C 939.1 794.4 937.0 794.3 938.7 794.3 C 938.7 794.3 938.7 794.3 938.7 794.3 Z M 897.1 793.7 C 894.7 793.8 892.8 793.3 894.8 793.3 C 895.1 793.6 896.8 793.3 897.1 793.5 C 893.7 793.5 899.8 793.7 898.1 793.9 C 896.1 793.9 895.4 794.0 895.8 794.2 C 894.4 794.2 892.4 794.2 892.3 794.1 C 893.2 794.1 894.6 794.1 894.6 794.0 C 893.9 794.0 893.2 794.0 893.5 793.9 C 895.5 793.9 896.5 793.8 897.1 793.7 C 897.1 793.7 897.1 793.7 897.1 793.7 Z M 913.2 793.9 C 910.0 793.8 909.8 793.5 908.7 793.3 C 913.0 793.4 913.5 793.9 916.6 794.1 C 913.2 794.0 909.6 794.4 908.5 794.2 C 910.1 794.1 912.9 794.1 913.2 793.9 C 913.2 793.9 913.2 793.9 913.2 793.9 Z M 788.9 525.8 C 791.2 524.4 793.1 523.3 795.7 521.7 C 796.3 520.8 791.5 523.4 793.5 522.3 C 796.0 520.5 794.5 522.1 796.5 520.7 C 794.3 521.7 805.2 514.0 805.8 514.1 C 804.2 515.3 803.7 515.8 804.1 515.7 C 799.7 518.8 798.1 520.3 794.9 522.7 C 792.3 523.9 785.3 528.7 781.8 531.7 C 779.0 532.9 774.9 536.7 771.3 538.6 C 770.4 539.4 774.3 536.9 771.5 539.0 C 769.5 540.0 770.9 538.8 768.3 540.4 C 768.2 540.7 768.9 540.5 767.6 541.4 C 767.7 541.1 766.1 542.2 765.5 542.5 C 770.7 538.9 765.0 542.3 769.0 539.4 C 770.7 538.4 767.6 541.1 772.1 537.9 C 773.7 536.6 775.2 535.4 774.7 535.4 C 776.0 534.5 776.7 533.9 777.5 533.3 C 775.9 534.9 783.8 528.7 780.4 531.7 C 780.1 531.9 777.5 533.7 775.8 535.0 C 777.6 534.2 779.5 532.6 782.3 530.4 C 783.7 529.8 782.0 531.1 783.5 530.2 C 785.6 528.4 782.4 530.3 784.1 528.9 C 783.3 529.4 782.2 530.2 782.2 530.1 C 786.3 527.7 787.7 526.2 789.7 524.8 C 788.4 526.0 792.1 523.5 788.9 525.8 C 788.9 525.8 788.9 525.8 788.9 525.8 Z M 755.3 550.0 C 754.4 550.6 753.5 551.2 752.5 552.0 C 752.1 551.8 755.8 549.2 753.1 550.7 C 757.3 547.8 753.2 551.2 755.3 550.0 C 755.3 550.0 755.3 550.0 755.3 550.0 Z M 774.7 537.8 C 776.2 537.2 775.1 537.0 776.4 536.1 C 774.1 537.8 772.1 539.3 771.6 539.2 C 774.3 537.4 775.5 536.6 778.2 534.6 C 775.8 536.8 781.3 532.9 782.3 532.6 C 780.2 534.2 778.7 535.4 775.8 537.4 C 776.2 537.0 772.1 539.7 774.7 537.8 C 774.7 537.8 774.7 537.8 774.7 537.8 Z M 767.4 543.5 C 766.8 543.7 762.8 546.7 763.5 545.7 C 766.0 544.0 766.8 543.3 766.1 543.4 C 767.9 542.1 768.3 542.1 769.9 540.9 C 771.1 540.6 768.2 542.6 767.4 543.4 C 767.9 543.0 768.5 542.7 767.4 543.5 C 767.4 543.5 767.4 543.5 767.4 543.5 Z M 773.2 615.5 C 773.2 616.6 771.9 612.1 771.7 611.2 C 771.8 612.6 771.6 612.0 770.5 609.4 C 771.3 610.2 769.8 606.3 769.4 603.7 C 768.9 603.2 769.9 606.4 768.6 602.8 C 767.7 599.9 766.7 597.4 765.2 593.1 C 765.3 592.1 765.9 593.9 766.4 595.0 C 765.4 592.1 765.9 592.8 765.2 590.6 C 765.2 591.1 764.5 589.4 764.4 588.6 C 765.8 592.3 763.1 583.4 764.6 587.3 C 764.5 587.6 764.9 588.5 765.3 589.4 C 764.5 588.5 766.4 593.7 766.5 595.0 C 767.9 596.7 769.5 602.4 771.4 608.9 C 771.4 609.4 770.6 607.5 771.1 609.1 C 771.3 609.2 772.0 611.3 772.4 612.2 C 772.2 612.2 772.4 613.1 772.8 614.5 C 772.9 614.5 773.0 614.6 773.2 615.5 C 773.2 615.5 773.2 615.5 773.2 615.5 Z M 942.8 421.9 C 942.7 422.7 948.6 418.2 950.2 416.8 C 950.0 417.8 939.5 424.9 942.8 421.9 C 942.8 421.9 942.8 421.9 942.8 421.9 Z M 906.7 447.9 C 908.2 446.8 907.1 447.2 908.4 446.2 C 908.6 446.6 912.0 443.3 912.2 443.6 C 910.5 445.2 909.4 445.9 906.7 447.9 C 906.7 447.9 906.7 447.9 906.7 447.9 Z M 873.2 471.3 C 875.9 469.3 871.7 472.1 872.2 471.6 C 874.6 470.0 877.0 468.2 876.9 468.7 C 874.8 470.0 873.5 471.4 873.2 471.3 C 873.2 471.3 873.2 471.3 873.2 471.3 Z M 923.3 436.6 C 925.6 435.1 921.9 438.3 921.6 438.2 C 924.0 436.4 919.9 439.0 917.8 440.6 C 917.9 440.0 918.8 439.5 917.8 439.8 C 921.0 437.3 918.4 439.9 920.6 438.2 C 922.1 436.9 920.5 438.1 920.6 437.7 C 921.5 437.1 922.4 436.4 923.3 435.8 C 923.3 436.0 923.3 436.2 923.3 436.4 C 922.2 437.2 921.2 438.0 921.5 438.0 C 922.4 437.3 922.6 437.1 923.3 436.6 C 923.3 436.6 923.3 436.6 923.3 436.6 Z M 755.3 559.4 C 754.7 557.7 755.0 559.2 755.4 560.5 C 755.7 560.7 756.6 561.6 756.9 563.6 C 755.3 559.5 756.9 565.0 755.9 562.8 C 755.9 561.7 754.7 559.3 754.1 557.3 C 754.1 556.4 755.2 558.3 755.3 559.4 C 755.3 559.4 755.3 559.4 755.3 559.4 Z M 757.6 567.0 C 757.6 566.7 757.4 566.0 756.9 564.7 C 757.7 566.0 757.1 564.1 757.7 565.7 C 757.5 565.6 759.3 571.2 758.1 567.9 C 757.3 564.9 758.2 568.8 758.7 570.2 C 758.2 568.7 756.9 566.3 757.1 565.9 C 757.3 566.6 757.6 567.2 757.6 567.0 C 757.6 567.0 757.6 567.0 757.6 567.0 Z M 781.2 636.5 C 781.5 636.8 780.9 634.9 780.7 634.2 C 782.5 639.6 784.1 644.3 784.9 647.1 C 784.1 644.6 783.8 644.8 784.2 646.3 C 783.4 643.5 783.0 643.0 782.9 642.0 C 783.9 644.1 782.3 639.8 781.2 636.5 C 781.2 636.5 781.2 636.5 781.2 636.5 Z M 781.2 636.5 " fill="#85878C"></path><text xml:space="preserve" font-family="BebasNeue,Bebas Neue" font-size="74.0" fill="#85888D" transform="matrix(1.00, 0.00, -0.00, -1.00, 838.4, 673.1)">t</text><text xml:space="preserve" font-family="BebasNeue,Bebas Neue" font-size="74.0" fill="#85888D" transform="matrix(1.00, 0.00, -0.00, -1.00, 864.8, 673.1)">h</text><text xml:space="preserve" font-family="BebasNeue,Bebas Neue" font-size="74.0" fill="#85888D" transform="matrix(1.00, 0.00, -0.00, -1.00, 896.4, 673.1)">o</text><text xml:space="preserve" font-family="BebasNeue,Bebas Neue" font-size="74.0" fill="#85888D" transform="matrix(1.00, 0.00, -0.00, -1.00, 925.7, 673.1)">u</text><text xml:space="preserve" font-family="BebasNeue,Bebas Neue" font-size="74.0" fill="#85888D" transform="matrix(1.00, 0.00, -0.00, -1.00, 955.1, 673.1)">g</text><text xml:space="preserve" font-family="BebasNeue,Bebas Neue" font-size="74.0" fill="#85888D" transform="matrix(1.00, 0.00, -0.00, -1.00, 984.0, 673.1)">h</text><text xml:space="preserve" font-family="BebasNeue,Bebas Neue" font-size="74.0" fill="#85888D" transform="matrix(1.00, 0.00, -0.00, -1.00, 1015.6, 673.1)">t</text><text xml:space="preserve" font-family="BebasNeue,Bebas Neue" font-size="74.0" fill="#85888D" transform="matrix(1.00, 0.00, -0.00, -1.00, 1041.9, 673.1)">s</text><text xml:space="preserve" font-family="Love&amp;Trust,Love &amp; Trust" font-size="74.0" fill="#85888D" transform="matrix(1.00, 0.00, -0.00, -1.00, 1069.6, 673.1)"> </text><text xml:space="preserve" font-family="Love&amp;Trust,Love &amp; Trust" font-size="74.0" fill="#85888D" transform="matrix(1.00, 0.00, -0.00, -1.00, 1090.5, 673.1)"> </text><text xml:space="preserve" font-family="Love&amp;Trust,Love &amp; Trust" font-size="56.0" fill="#85888D" transform="matrix(1.00, 0.00, -0.00, -1.00, 911.3, 579.2)">w</text><text xml:space="preserve" font-family="Love&amp;Trust,Love &amp; Trust" font-size="56.0" fill="#85888D" transform="matrix(1.00, 0.00, -0.00, -1.00, 947.4, 579.2)">i</text><text xml:space="preserve" font-family="Love&amp;Trust,Love &amp; Trust" font-size="56.0" fill="#85888D" transform="matrix(1.00, 0.00, -0.00, -1.00, 953.6, 579.2)">t</text><text xml:space="preserve" font-family="Love&amp;Trust,Love &amp; Trust" font-size="56.0" fill="#85888D" transform="matrix(1.00, 0.00, -0.00, -1.00, 966.0, 579.2)">h</text><text xml:space="preserve" font-family="BebasNeue,Bebas Neue" font-size="56.0" fill="#85888D" transform="matrix(1.00, 0.00, -0.00, -1.00, 996.7, 579.2)"> </text><text xml:space="preserve" font-family="BebasNeue,Bebas Neue" font-size="56.0" fill="#85888D" transform="matrix(1.00, 0.00, -0.00, -1.00, 1005.3, 579.2)"> </text><text xml:space="preserve" font-family="BebasNeue,Bebas Neue" font-size="74.0" fill="#85888D" transform="matrix(1.00, 0.00, -0.00, -1.00, 898.3, 481.6)">l</text><text xml:space="preserve" font-family="BebasNeue,Bebas Neue" font-size="74.0" fill="#85888D" transform="matrix(1.00, 0.00, -0.00, -1.00, 923.4, 481.6)">o</text><text xml:space="preserve" font-family="BebasNeue,Bebas Neue" font-size="74.0" fill="#85888D" transform="matrix(1.00, 0.00, -0.00, -1.00, 952.7, 481.6)">v</text><text xml:space="preserve" font-family="BebasNeue,Bebas Neue" font-size="74.0" fill="#85888D" transform="matrix(1.00, 0.00, -0.00, -1.00, 982.4, 481.6)">e</text></g></svg>